<?xml version="1.0" encoding="UTF-8"?>
<svg version="1.1" xmlns="http://www.w3.org/2000/svg" width="1920" height="819">
<path d="M0 0 C633.6 0 1267.2 0 1920 0 C1920 270.27 1920 540.54 1920 819 C1286.4 819 652.8 819 0 819 C0 548.73 0 278.46 0 0 Z " fill="#FEFDFD" transform="translate(0,0)"/>
<path d="M0 0 C11.1656247 7.28797626 20.02330398 17.74665533 28.8515625 27.609375 C29.61984375 28.46273437 30.388125 29.31609375 31.1796875 30.1953125 C32.62766964 31.80476027 34.07428514 33.41543863 35.51953125 35.02734375 C40.24965973 40.26455468 45.05710226 45.43111807 49.8515625 50.609375 C61.28058511 62.95329122 61.28058511 62.95329122 66.2265625 68.484375 C70.61402425 73.38145118 75.10373866 78.17921883 79.59765625 82.97827148 C84.73770967 88.47254528 89.8113877 94.02337482 94.8515625 99.609375 C93.8515625 102.609375 93.8515625 102.609375 90.5390625 104.609375 C77.69468739 110.50961798 60.39869727 112.43766162 46.8515625 107.609375 C31.8647363 101.38476288 21.24297738 92.41785611 10.48291016 80.4140625 C7.62594358 77.25352719 4.70383465 74.15400462 1.7890625 71.046875 C-2.04386036 66.95149508 -5.86040024 62.8431572 -9.63598633 58.69482422 C-11.79642417 56.3233987 -13.97138905 53.96554769 -16.1484375 51.609375 C-16.90125 50.78953125 -17.6540625 49.9696875 -18.4296875 49.125 C-19.120625 48.39796875 -19.8115625 47.6709375 -20.5234375 46.921875 C-21.10867188 46.29925781 -21.69390625 45.67664063 -22.296875 45.03515625 C-24.56490868 43.28867462 -26.3549821 43.12306513 -29.1484375 42.609375 C-31.5078125 41.3046875 -31.5078125 41.3046875 -33.8984375 39.734375 C-38.48571357 36.86904941 -42.94798 35.04138504 -48.1484375 33.609375 C-47.65214844 34.021875 -47.15585937 34.434375 -46.64453125 34.859375 C-36.38557057 43.58046491 -28.84999734 53.02410493 -26.1484375 66.609375 C-26.05162841 68.70038735 -26.01030629 70.79421115 -26.00317383 72.88745117 C-25.99679398 74.1594487 -25.99041412 75.43144623 -25.98384094 76.74198914 C-25.98231158 78.12877362 -25.98119799 79.51555861 -25.98046875 80.90234375 C-25.9772527 82.33238254 -25.97388837 83.762421 -25.97038269 85.19245911 C-25.96439807 88.1908952 -25.96254197 91.1893025 -25.96313477 94.18774414 C-25.96323604 98.00943938 -25.94961694 101.83094737 -25.93236256 105.65259838 C-25.92117955 108.6082085 -25.91921753 111.56377436 -25.91974449 114.51940346 C-25.91857258 115.92705235 -25.91419563 117.33470269 -25.90641212 118.74233055 C-25.85294902 129.41488094 -26.47605577 138.52097572 -31.7109375 147.984375 C-32.06244873 148.62648926 -32.41395996 149.26860352 -32.77612305 149.93017578 C-43.31845542 168.60543035 -59.8814689 180.45301088 -80.1484375 186.609375 C-80.8084375 186.609375 -81.4684375 186.609375 -82.1484375 186.609375 C-82.24200899 165.15568363 -82.31247945 143.70202606 -82.35568619 122.24817181 C-82.37628387 112.28606519 -82.40435093 102.32408561 -82.45019531 92.36206055 C-82.49014875 83.67597913 -82.51589061 74.98998975 -82.52479148 66.303819 C-82.52999185 61.70740633 -82.54215603 57.11125687 -82.57135773 52.51492882 C-82.59866146 48.18192162 -82.60685251 43.84928417 -82.60086823 39.51619911 C-82.60196181 37.93243012 -82.60982627 36.34864779 -82.6252594 34.76495361 C-82.75503597 20.75136213 -80.34844671 10.30385713 -70.59375 -0.0390625 C-51.76207408 -17.78949387 -20.07336523 -12.31222071 0 0 Z " fill="#108FF4" transform="translate(388.1484375,330.390625)"/>
<path d="M0 0 C1.37948256 -0.0020254 2.75896406 -0.00494071 4.13844299 -0.00869751 C7.01891348 -0.01310048 9.89910336 -0.0067569 12.77954102 0.00732422 C16.44881559 0.02439912 20.11743083 0.01457336 23.78668118 -0.00339317 C26.63252107 -0.01430015 29.47820798 -0.010753 32.32405281 -0.0030098 C34.32740335 -0.00006985 36.33076013 -0.00909049 38.33409119 -0.0184021 C49.76490567 0.0691382 59.11475109 2.31808899 67.703125 10.18359375 C75.06140969 17.94295894 76.2182498 26.2327975 76.1875 36.64453125 C76.19274185 37.69568619 76.1979837 38.74684113 76.2033844 39.82984924 C76.20977456 42.04093548 76.20850685 44.25205585 76.19995117 46.46313477 C76.1914389 49.8230512 76.22025042 53.18126651 76.25195312 56.54101562 C76.2535655 58.70052033 76.25298692 60.86002801 76.25 63.01953125 C76.26123398 64.01150009 76.27246796 65.00346893 76.28404236 66.02549744 C76.18287875 76.28331372 72.96022541 84.06930238 65.89453125 91.48828125 C57.08721592 99.34736372 46.06566073 99.70273325 34.8203125 99.6640625 C33.58780258 99.66597595 32.35529266 99.6678894 31.08543396 99.66986084 C28.48753657 99.67121751 25.88963228 99.66755736 23.29174805 99.65917969 C19.3330143 99.64848238 15.37473527 99.65908828 11.41601562 99.671875 C8.88411359 99.67055314 6.35221183 99.66799018 3.8203125 99.6640625 C2.05742638 99.67013519 2.05742638 99.67013519 0.25892639 99.67633057 C-10.68226722 99.61445029 -19.42457514 98.23693705 -28.24609375 91.3984375 C-36.62021269 82.89862822 -38.71260388 74.41021447 -38.71484375 62.8125 C-38.72245728 61.71553802 -38.7300708 60.61857605 -38.73791504 59.4883728 C-38.74867868 57.17716742 -38.75158443 54.86591354 -38.74707031 52.5546875 C-38.74609856 49.04083187 -38.78775532 45.52916572 -38.83203125 42.015625 C-38.83723953 39.76042118 -38.83992642 37.50520984 -38.83984375 35.25 C-38.85623901 34.21114655 -38.87263428 33.17229309 -38.88952637 32.10195923 C-38.80377292 22.93738429 -35.70478174 15.0470869 -29.24609375 8.3984375 C-20.21891888 0.69061896 -11.53966216 -0.05355409 0 0 Z " fill="#081233" transform="translate(1118.24609375,395.6015625)"/>
<path d="M0 0 C6.1751409 2.63015261 10.4623619 8.53626762 14.7734375 13.484375 C16.81644504 15.79261509 18.92501456 17.96748532 21.125 20.125 C23.6627273 22.62276309 26.05959855 25.17009176 28.375 27.875 C31.11621449 31.06682509 34.00685888 34.04302977 37 37 C39.91053801 39.87557659 42.72424022 42.75874094 45.375 45.875 C48.41430701 49.43286176 51.67363368 52.71442297 55 56 C58.92064836 59.87257174 62.65404188 63.80792241 66.2265625 68.0078125 C69.18962173 71.33635921 72.40502922 74.41225193 75.57421875 77.54296875 C78.29321697 80.29699432 80.83711319 83.15657888 83.33203125 86.11328125 C85.44839593 88.50720196 87.74059125 90.74059125 90 93 C90.33 62.31 90.66 31.62 91 0 C98.92 0 106.84 0 115 0 C115.09030824 15.95086613 115.16398638 31.90151398 115.20724869 47.85256481 C115.2278704 55.25898074 115.25598329 62.6652265 115.30175781 70.0715332 C115.34163784 76.52719131 115.36743567 82.98272617 115.37635398 89.43850404 C115.38156685 92.85657496 115.39381013 96.27429333 115.42292023 99.69225121 C115.45188533 103.5088341 115.4559587 107.3246826 115.45410156 111.14135742 C115.46848267 112.27352188 115.48286377 113.40568634 115.49768066 114.57215881 C115.45719334 122.24317232 115.45719334 122.24317232 113.09100342 126.16011047 C109.27558874 129.51732235 106.64108959 130.27817525 101.5625 130.25 C100.63566406 130.25515625 99.70882812 130.2603125 98.75390625 130.265625 C92.74865901 129.68639548 89.76882955 127.13756392 85.625 122.875 C84.89567261 122.12923706 84.89567261 122.12923706 84.15161133 121.3684082 C80.99392514 118.11409566 78.01232198 114.74328368 75.07421875 111.29296875 C72.16543786 108.07742377 69.08136602 105.04934351 66 102 C61.74653076 97.79073413 57.63619354 93.55975287 53.76953125 88.98828125 C51.00069444 85.87715998 48.00956889 82.98928921 45.04614258 80.06567383 C41.81968481 76.86582145 38.82054486 73.5491007 35.875 70.09375 C33.51654726 67.46014444 31.0155432 64.98173782 28.5 62.5 C25.40508498 59.44662049 22.38065723 56.37676315 19.5625 53.0625 C14.64723584 47.4573742 9.27149205 42.27149205 4 37 C3.67 67.36 3.34 97.72 3 129 C-4.92 129 -12.84 129 -21 129 C-21.13555803 113.34443743 -21.24603421 97.68934148 -21.31087303 82.03336239 C-21.34178205 74.76364536 -21.38390492 67.49431946 -21.45263672 60.22485352 C-21.51253061 53.88710197 -21.55117065 47.54963374 -21.56453097 41.21160704 C-21.57233827 37.85698683 -21.59062225 34.50317695 -21.63438034 31.14881706 C-21.67794349 27.39942268 -21.68393362 23.65170639 -21.68115234 19.90209961 C-21.702724 18.79582718 -21.72429565 17.68955475 -21.746521 16.54975891 C-21.69621363 10.28123969 -20.97099652 6.72450445 -16.48386574 2.21047306 C-11.91592292 -1.5158558 -5.54581205 -0.65897296 0 0 Z " fill="#081233" transform="translate(671,365)"/>
<path d="M0 0 C1.39760901 0.0042638 2.79522515 0.00658021 4.19284058 0.00706482 C7.1026894 0.0131859 10.01175501 0.03566865 12.92138672 0.0715332 C16.62749077 0.1168862 20.33289148 0.13156717 24.03924751 0.13527012 C26.91855628 0.13972421 29.79772163 0.15507118 32.67696762 0.17414665 C34.70024607 0.18717951 36.72355299 0.19552417 38.74685669 0.20375061 C50.6317011 0.35634963 59.07765562 1.50571691 67.74609375 10.0390625 C73.331427 16.25795594 74.78856665 22.36547845 74.6796875 30.43359375 C74.67066406 31.22934814 74.66164063 32.02510254 74.65234375 32.8449707 C74.40820338 41.11437795 72.64371502 46.5397574 66.6171875 52.37109375 C59.1906843 58.35394025 50.48116571 60.6915937 41.07495117 60.67211914 C39.85406296 60.67204361 38.63317474 60.67196808 37.37528992 60.67189026 C36.06679581 60.66672897 34.7583017 60.66156769 33.41015625 60.65625 C32.04966789 60.65438336 30.68917885 60.65296062 29.32868958 60.65196228 C25.75963463 60.6481565 22.19062081 60.63834289 18.62158203 60.6272583 C14.97494055 60.61700238 11.32829239 60.61245572 7.68164062 60.60742188 C0.53513949 60.59671878 -6.61133381 60.57966579 -13.7578125 60.55859375 C-13.78837301 61.98814673 -13.81009192 63.41789037 -13.828125 64.84765625 C-13.84117676 65.64381348 -13.85422852 66.4399707 -13.86767578 67.26025391 C-13.70370846 70.69045034 -12.74241757 72.78014665 -10.7578125 75.55859375 C-6.27866295 78.30177816 -2.8647266 78.94391041 2.34912109 78.9909668 C3.37456024 79.00625427 3.37456024 79.00625427 4.42071533 79.02185059 C6.66077016 79.05183518 8.90039637 79.06122373 11.140625 79.0703125 C12.70148117 79.08717006 14.26232385 79.10532175 15.82315063 79.12471008 C19.91656276 79.17209959 24.00992018 79.20198013 28.10351562 79.22814941 C32.28656818 79.25801095 36.4694325 79.30452198 40.65234375 79.34960938 C48.84888122 79.43551682 57.04539949 79.50137745 65.2421875 79.55859375 C65.2421875 85.82859375 65.2421875 92.09859375 65.2421875 98.55859375 C55.09731107 98.62653052 44.9525872 98.68150251 34.80753422 98.71403027 C30.09613108 98.7296466 25.38489246 98.75081078 20.67358398 98.78491211 C16.12186008 98.81764993 11.57029384 98.83547705 7.01846123 98.84322548 C5.28702757 98.8487432 3.55560196 98.85951767 1.82423592 98.87578392 C-11.2245715 98.9934364 -20.65848445 98.47713221 -30.5859375 89.04296875 C-33.65401667 85.53343934 -35.35023118 81.96724469 -36.7578125 77.55859375 C-37.0878125 76.56859375 -37.4178125 75.57859375 -37.7578125 74.55859375 C-37.86465964 72.93986784 -37.9164424 71.31721273 -37.93481445 69.69506836 C-37.94764969 68.70651352 -37.96048492 67.71795868 -37.97370911 66.69944763 C-37.98109604 65.63073929 -37.98848297 64.56203094 -37.99609375 63.4609375 C-38.0041655 62.35690079 -38.01223724 61.25286407 -38.02055359 60.1153717 C-38.03439425 57.77427744 -38.04511648 55.43316299 -38.05297852 53.09204102 C-38.07012847 49.53427047 -38.11400876 45.97744443 -38.15820312 42.41992188 C-38.16833589 40.1419339 -38.17685016 37.86393803 -38.18359375 35.5859375 C-38.20110184 34.53139877 -38.21860992 33.47686005 -38.23664856 32.3903656 C-38.21341222 24.3635108 -36.59294648 17.68185096 -32.00390625 11.0078125 C-22.46530431 1.71643134 -13.03462809 -0.19362213 0 0 Z " fill="#071031" transform="translate(850.7578125,395.44140625)"/>
<path d="M0 0 C9.49295025 -0.09061152 18.98561011 -0.16389432 28.47889614 -0.20724869 C32.88770642 -0.22806369 37.29620376 -0.25626894 41.70483398 -0.30175781 C45.96479909 -0.3454343 50.22446445 -0.36918283 54.48463631 -0.37950897 C56.10444922 -0.38686144 57.72424698 -0.40121867 59.3439312 -0.42292023 C75.52332372 -0.63094786 75.52332372 -0.63094786 83 4 C84.0725 4.61875 85.145 5.2375 86.25 5.875 C93.12180806 11.1850335 97.18885667 18.07170968 98.37573242 26.74606323 C98.5241471 29.68041423 98.55485989 32.5893666 98.53125 35.52734375 C98.53699036 37.13169029 98.53699036 37.13169029 98.54284668 38.76844788 C98.54555247 41.01645862 98.53828544 43.26450158 98.52148438 45.51245117 C98.50007815 48.92504145 98.52132222 52.33552158 98.546875 55.74804688 C98.54423108 57.94531708 98.53910477 60.14258599 98.53125 62.33984375 C98.53934692 63.34538803 98.54744385 64.35093231 98.55578613 65.38694763 C98.42819504 75.18175516 95.96743111 84.13713873 89.01026917 91.29298401 C80.73695335 98.31825338 72.23541209 98.73786185 61.75390625 98.62890625 C60.29239221 98.62973719 58.83087828 98.63220501 57.36936951 98.63621521 C54.32074525 98.63905768 51.27286194 98.62452845 48.22436523 98.59692383 C44.34664577 98.56287308 40.47025183 98.56886341 36.59246922 98.5875864 C33.57835648 98.59823459 30.56454386 98.58914798 27.55045891 98.57420158 C26.12214999 98.56907431 24.693809 98.56943407 23.26550484 98.57574654 C12.87997901 98.60442343 3.09216793 97.97448689 -4.9375 90.75 C-10.24074147 85.27043593 -12.49227147 79.10924966 -12.49804688 71.578125 C-12.46807617 70.30195313 -12.46807617 70.30195313 -12.4375 69 C-12.44458984 68.14921875 -12.45167969 67.2984375 -12.45898438 66.421875 C-12.37858544 58.35724325 -10.40796483 51.64931695 -4.87109375 45.6015625 C-1.35124777 42.5887507 2.73447196 40.73612193 7 39 C7.80719482 38.65686768 8.61438965 38.31373535 9.44604492 37.96020508 C14.44778364 36.60883884 19.26469678 36.63527741 24.42578125 36.59375 C25.52794479 36.58234985 26.63010834 36.57094971 27.76567078 36.5592041 C30.09300932 36.54035267 32.42040066 36.52725546 34.74780273 36.51953125 C38.29050659 36.5001205 41.83088714 36.43803739 45.37304688 36.375 C47.6406113 36.3619378 49.90819223 36.35143769 52.17578125 36.34375 C53.2260701 36.3190564 54.27635895 36.29436279 55.35847473 36.2689209 C62.69731084 36.31292549 67.49636002 38.04972052 73 43 C73.33 43.66 73.66 44.32 74 45 C74.10861833 42.29057607 74.18758577 39.585561 74.25 36.875 C74.28351563 36.11445313 74.31703125 35.35390625 74.3515625 34.5703125 C74.44309561 29.2613922 73.73748119 26.07162686 70 22 C65.73304055 20.22208834 62.04270853 19.73568429 57.44384766 19.68115234 C56.16297272 19.66128265 54.88209778 19.64141296 53.56240845 19.62094116 C52.17962822 19.60906748 50.79684616 19.59740447 49.4140625 19.5859375 C47.98773091 19.56721021 46.56141021 19.54763565 45.13510132 19.5272522 C41.39681444 19.47608959 37.6584917 19.43637945 33.92004395 19.39910889 C30.09895066 19.35896922 26.27800449 19.30792252 22.45703125 19.2578125 C14.9714478 19.16124128 7.48580654 19.07778611 0 19 C0 12.73 0 6.46 0 0 Z " fill="#091334" transform="translate(1331,396)"/>
<path d="M0 0 C0.09366332 14.82136521 0.16408652 29.64269095 0.20724869 44.46429253 C0.22782713 51.34706422 0.25585659 58.22965144 0.30175781 65.11230469 C0.34605939 71.75829769 0.36915897 78.40414988 0.37950897 85.05029678 C0.38688197 87.58195124 0.40127964 90.1135956 0.42292023 92.6451683 C0.45208844 96.19970829 0.45595024 99.75346446 0.45410156 103.30810547 C0.46848267 104.34748764 0.48286377 105.38686981 0.49768066 106.45774841 C0.4431059 116.19799504 -2.26825821 124.08646678 -9.00390625 131.2421875 C-17.68258182 138.88485679 -26.47405778 139.21879485 -37.5625 139.3125 C-38.67947266 139.34150391 -39.79644531 139.37050781 -40.94726562 139.40039062 C-51.42909527 139.47938412 -60.49251695 136.95879687 -69.4375 131.5 C-70.38496094 130.9328125 -71.33242188 130.365625 -72.30859375 129.78125 C-76.36457699 127.09688373 -79.94084436 124.30016235 -83.0625 120.5625 C-86.21215079 116.8799365 -89.45603912 113.30282449 -92.75 109.75 C-93.2641748 109.19473633 -93.77834961 108.63947266 -94.30810547 108.06738281 C-95.35647508 106.93526095 -96.404978 105.80326251 -97.45361328 104.67138672 C-100.77359583 101.08303804 -104.07751303 97.48011655 -107.375 93.87109375 C-109.13968218 91.94097262 -110.91063467 90.0165675 -112.6875 88.09765625 C-113.5125 87.19917969 -114.3375 86.30070312 -115.1875 85.375 C-115.92355469 84.57835937 -116.65960938 83.78171875 -117.41796875 82.9609375 C-119 81 -119 81 -119 79 C-118.41734375 79.0721875 -117.8346875 79.144375 -117.234375 79.21875 C-105.33011618 80.66186084 -105.33011618 80.66186084 -93.60546875 79.0078125 C-89.75684303 77.93203196 -86.489073 77.69986283 -82.5 77.6875 C-80.62828125 77.66236328 -80.62828125 77.66236328 -78.71875 77.63671875 C-70.19336335 78.46955589 -66.03470964 82.43843785 -60.375 88.4375 C-54.59017318 94.68072594 -54.59017318 94.68072594 -48 100 C-46.68 100 -45.36 100 -44 100 C-41.97386717 101.29327628 -39.97485205 102.6296945 -38 104 C-36.35380887 104.71573527 -34.69271945 105.4025696 -33 106 C-33 105.34 -33 104.68 -33 104 C-34.485 103.505 -34.485 103.505 -36 103 C-37.68359375 100.8828125 -37.68359375 100.8828125 -39.4375 98.125 C-40.01371094 97.24070312 -40.58992187 96.35640625 -41.18359375 95.4453125 C-46.28608705 85.76703489 -47.64490588 77.16915955 -47.52148438 66.35791016 C-47.5000926 64.13462449 -47.52134935 61.91459246 -47.546875 59.69140625 C-47.58239751 42.59117755 -42.5187576 29.62858096 -30.625 17.1875 C-23.15240252 10.08788931 -11.00232523 0 0 0 Z " fill="#7F3CE8" transform="translate(556,378)"/>
<path d="M0 0 C1.31872101 -0.00637985 2.63744202 -0.0127597 3.99612427 -0.01933289 C5.44907596 -0.02086222 6.90202815 -0.02197583 8.35498047 -0.02270508 C9.83893873 -0.02591744 11.32289666 -0.0292815 12.80685425 -0.03279114 C15.92576836 -0.03879204 19.04465474 -0.04063026 22.16357422 -0.04003906 C26.14809518 -0.03993785 30.13243627 -0.05354281 34.11691475 -0.07081127 C37.1865418 -0.08197131 40.25612608 -0.08395698 43.32577133 -0.08342934 C44.79368581 -0.08460524 46.26160155 -0.08900506 47.729496 -0.0967617 C49.79244484 -0.10663438 51.85501288 -0.10365437 53.91796875 -0.09765625 C55.67549973 -0.09979378 55.67549973 -0.09979378 57.46853638 -0.10197449 C65.90579491 0.51543887 73.78514951 4.03319982 79.74951172 10.07104492 C85.81206697 17.70482476 86.16305442 25.19145038 86.18310547 34.63354492 C86.19309067 36.28111031 86.19309067 36.28111031 86.20327759 37.96195984 C86.21337337 40.27914768 86.21809556 42.59636441 86.21777344 44.91357422 C86.22214093 48.43595929 86.25847959 51.95708475 86.29638672 55.47924805 C86.30225683 57.73900942 86.30622492 59.9987767 86.30810547 62.25854492 C86.3224765 63.30053543 86.33684753 64.34252594 86.35165405 65.41609192 C86.3012624 73.58675622 84.29680901 79.90550034 80.22216797 86.95776367 C71.02881106 95.42532924 59.31735323 96.45771394 47.42138672 96.48120117 C45.646325 96.49118637 45.646325 96.49118637 43.83540344 96.50137329 C41.3400731 96.51146507 38.84471596 96.51619139 36.34936523 96.51586914 C32.55715891 96.52023776 28.76612157 96.55658457 24.97412109 96.59448242 C22.53988025 96.60035238 20.10563392 96.60432057 17.67138672 96.60620117 C15.98960579 96.62775772 15.98960579 96.62775772 14.27384949 96.64974976 C4.83710412 96.59570849 -4.67718639 94.78065746 -11.64892578 87.92651367 C-17.44617268 81.0601641 -18.61312579 74.82931515 -18.71533203 66.02026367 C-18.73007568 65.17318848 -18.74481934 64.32611328 -18.76000977 63.45336914 C-18.64184853 56.19812753 -16.55008513 51.00864932 -11.90283203 45.45776367 C-2.56892883 37.60879961 5.9084613 35.82440785 17.90966797 35.94995117 C18.9415625 35.95278107 19.97345703 35.95561096 21.03662109 35.95852661 C24.30692529 35.96965115 27.57694765 35.99474141 30.84716797 36.02026367 C33.07502857 36.03030346 35.30289351 36.03942756 37.53076172 36.04760742 C42.96965868 36.06956512 48.40839318 36.10296507 53.84716797 36.14526367 C53.84716797 36.80526367 53.84716797 37.46526367 53.84716797 38.14526367 C54.38341797 38.22776367 54.91966797 38.31026367 55.47216797 38.39526367 C58.67492897 39.40666188 61.08934069 41.25634088 63.84716797 43.14526367 C63.78693761 40.41381701 63.69984644 37.6876717 63.59716797 34.95776367 C63.58298828 34.18883789 63.56880859 33.41991211 63.55419922 32.62768555 C63.33779148 27.58538517 62.62900319 24.80625078 58.84716797 21.14526367 C56.09123659 19.76729798 53.82936983 19.98227429 50.74511719 19.93994141 C49.46394012 19.91999619 48.18276306 19.90005096 46.86276245 19.87950134 C45.45912803 19.86251698 44.05549234 19.84563818 42.65185547 19.82885742 C41.21981199 19.80828827 39.7877746 19.78729181 38.35574341 19.7658844 C34.58450234 19.71065965 30.81320645 19.6612522 27.04187012 19.61303711 C23.19436761 19.562825 19.34694484 19.50713743 15.49951172 19.4519043 C7.94879797 19.3443178 0.39801797 19.24287397 -7.15283203 19.14526367 C-7.1796719 16.16603774 -7.1995924 13.18705072 -7.21533203 10.20776367 C-7.22371094 9.35762695 -7.23208984 8.50749023 -7.24072266 7.6315918 C-7.24394531 6.82270508 -7.24716797 6.01381836 -7.25048828 5.18041992 C-7.2557251 4.43155518 -7.26096191 3.68269043 -7.26635742 2.91113281 C-7.00248437 -1.19337001 -3.30975542 0.01081153 0 0 Z " fill="#3565F0" transform="translate(1512.15283203125,398.854736328125)"/>
<path d="M0 0 C3.74530939 2.73484469 7.51344365 5.52386682 10.6640625 8.9453125 C10.6640625 9.6053125 10.6640625 10.2653125 10.6640625 10.9453125 C5.78218289 9.10414648 1.19903929 6.72762358 -3.42773438 4.3359375 C-6.71379054 2.5405412 -6.71379054 2.5405412 -10.3359375 1.9453125 C-9.83964844 2.3578125 -9.34335937 2.7703125 -8.83203125 3.1953125 C1.42692943 11.91640241 8.96250266 21.36004243 11.6640625 34.9453125 C11.76087159 37.03632485 11.80219371 39.13014865 11.80932617 41.22338867 C11.81570602 42.4953862 11.82208588 43.76738373 11.82865906 45.07792664 C11.83018842 46.46471112 11.83130201 47.85149611 11.83203125 49.23828125 C11.8352473 50.66832004 11.83861163 52.0983585 11.84211731 53.52839661 C11.84810193 56.5268327 11.84995803 59.52524 11.84936523 62.52368164 C11.84926396 66.34537688 11.86288306 70.16688487 11.88013744 73.98853588 C11.89132045 76.944146 11.89328247 79.89971186 11.89275551 82.85534096 C11.89392742 84.26298985 11.89830437 85.67064019 11.90608788 87.07826805 C11.95955098 97.75081844 11.33644423 106.85691322 6.1015625 116.3203125 C5.75005127 116.96242676 5.39854004 117.60454102 5.03637695 118.26611328 C-5.50595542 136.94136785 -22.0689689 148.78894838 -42.3359375 154.9453125 C-42.9959375 154.9453125 -43.6559375 154.9453125 -44.3359375 154.9453125 C-44.42939546 135.75217778 -44.49992387 116.55908926 -44.54318619 97.36577415 C-44.56380792 88.45389574 -44.59192106 79.54215874 -44.63769531 70.63037109 C-44.67757502 62.86248671 -44.70337314 55.09470475 -44.71229148 47.32672083 C-44.71750433 43.21391472 -44.72974814 39.1014016 -44.75885773 34.98868942 C-44.7860449 31.11614142 -44.79437593 27.2440066 -44.78836823 23.37137222 C-44.789467 21.95159407 -44.79740158 20.53180184 -44.8127594 19.11210632 C-44.94915426 5.85107373 -44.94915426 5.85107373 -40.3359375 0.9453125 C-28.31288021 -10.65631804 -12.91372742 -8.69403057 0 0 Z " fill="#0B69E7" transform="translate(350.3359375,362.0546875)"/>
<path d="M0 0 C27.66645534 -2.60123375 27.66645534 -2.60123375 34.86328125 3.05859375 C37.9363029 6.13517077 40.45913163 9.54646257 42.81738281 13.19287109 C44.28365684 15.4334492 45.98950412 17.35581776 47.8125 19.3125 C48.31523438 19.89644531 48.81796875 20.48039062 49.3359375 21.08203125 C52.82946042 25.10860344 56.42591016 29.04499809 60 33 C61.10611998 31.89388002 62.2118519 30.7873709 63.31640625 29.6796875 C64.56917776 28.42982266 65.82795574 27.18597249 67.08984375 25.9453125 C70.64945232 22.42829754 74.155132 18.90399106 77.4375 15.125 C78.02144531 14.48820312 78.60539063 13.85140625 79.20703125 13.1953125 C81.12577057 10.97797883 81.12577057 10.97797883 82.63671875 8.0546875 C85.01757676 4.39686635 86.96150536 1.71231469 91 0 C100.53901122 -1.40904337 110.41678384 -0.66822699 120 0 C120 2 120 2 117.8671875 4.26171875 C116.92101563 5.16535156 115.97484375 6.06898438 115 7 C114.04210353 7.94181116 113.08640547 8.885863 112.1328125 9.83203125 C111.63910156 10.32123047 111.14539062 10.81042969 110.63671875 11.31445312 C109.88841797 12.05598633 109.88841797 12.05598633 109.125 12.8125 C108.63386719 13.29525391 108.14273437 13.77800781 107.63671875 14.27539062 C104.20036928 17.68942614 100.99882024 21.25648908 97.82958984 24.91870117 C94.09033749 29.17238763 90.15373956 33.24567146 86.25390625 37.3515625 C85.61839844 38.02445312 84.98289062 38.69734375 84.328125 39.390625 C83.7599707 39.98907227 83.19181641 40.58751953 82.60644531 41.20410156 C82.07631836 41.79674805 81.54619141 42.38939453 81 43 C80.41573242 43.65194336 79.83146484 44.30388672 79.22949219 44.97558594 C77.80184663 46.89476218 77.80184663 46.89476218 78.11669922 49.02441406 C79.1537478 51.34387153 80.36661202 52.7826781 82.1328125 54.609375 C82.77476563 55.28226562 83.41671875 55.95515625 84.078125 56.6484375 C84.75359375 57.34195313 85.4290625 58.03546875 86.125 58.75 C87.44145734 60.11849123 88.75656537 61.48828177 90.0703125 62.859375 C90.72757324 63.54459229 91.38483398 64.22980957 92.06201172 64.93579102 C94.5289348 67.56338419 96.88205974 70.27988184 99.24072266 73.00439453 C102.89224744 77.14643777 106.74585757 81.10600331 110.5703125 85.08789062 C114.45223297 89.18061211 117.83081447 93.33121901 121 98 C116.99860987 98.17423988 112.99871354 98.30060848 108.99438477 98.38452148 C107.6352692 98.41952778 106.27641353 98.46715338 104.91821289 98.52807617 C93.66115735 99.02002976 93.66115735 99.02002976 89.61206055 96.53369141 C87.84609591 94.77912009 86.42873225 93.03352482 85 91 C83.98922852 89.82460525 82.96943085 88.65686236 81.9375 87.5 C81.37160156 86.84386719 80.80570313 86.18773437 80.22265625 85.51171875 C77.16540498 82.05686362 74.02272839 78.68486229 70.875 75.3125 C69.97769165 74.34957031 69.97769165 74.34957031 69.06225586 73.3671875 C65.76876412 69.84632177 62.43169309 66.38636884 59 63 C58.61908203 63.87398438 58.61908203 63.87398438 58.23046875 64.765625 C56.86679667 67.24188033 55.35774797 68.80520626 53.3125 70.75 C50.03261024 73.94759862 46.98291258 77.24168397 44 80.71484375 C40.97994218 84.16549575 37.85652877 87.52063743 34.73120117 90.87597656 C32.60448376 93.17517132 30.74248874 95.38626689 29 98 C26.01904297 98.34057617 26.01904297 98.34057617 22.2421875 98.29296875 C21.57913605 98.28872391 20.91608459 98.28447906 20.23294067 98.28010559 C18.11321559 98.26329971 15.99443812 98.22564701 13.875 98.1875 C12.43881581 98.17245549 11.00261672 98.15876668 9.56640625 98.14648438 C6.04396236 98.1133909 2.52207364 98.0615968 -1 98 C2.78267387 93.53468853 6.63829697 89.15881504 10.625 84.875 C11.67972167 83.73701083 12.73440817 82.59898907 13.7890625 81.4609375 C14.32176758 80.88698242 14.85447266 80.31302734 15.40332031 79.72167969 C17.9405906 76.98577295 20.47000426 74.24263189 23 71.5 C23.98695234 70.43096482 24.97393165 69.36195453 25.9609375 68.29296875 C28.09228694 65.98412287 30.22226422 63.67401887 32.3515625 61.36328125 C32.89941406 60.76902344 33.44726562 60.17476563 34.01171875 59.5625 C35.06414307 58.42088717 36.11624181 57.27897408 37.16796875 56.13671875 C39.08346594 54.05942206 41.0017232 51.9982768 43 50 C42.67286854 46.56578546 41.15890761 44.71501852 38.87890625 42.22265625 C38.2461377 41.52543457 37.61336914 40.82821289 36.96142578 40.10986328 C36.31415527 39.4136084 35.66688477 38.71735352 35 38 C34.4210498 37.37206543 33.84209961 36.74413086 33.24560547 36.09716797 C31.48583021 34.20137144 29.71350141 32.31809793 27.9375 30.4375 C26.62489026 29.04176986 25.3123931 27.64593385 24 26.25 C23.33871094 25.54746094 22.67742188 24.84492188 21.99609375 24.12109375 C18.80548456 20.73068125 15.61951789 17.33597585 12.4375 13.9375 C11.87861084 13.34316162 11.31972168 12.74882324 10.74389648 12.13647461 C7.04685633 8.18580871 3.48910154 4.13531859 0 0 Z " fill="#081132" transform="translate(942,396)"/>
<path d="M0 0 C1.00154114 -0.01283524 2.00308228 -0.02567047 3.03497314 -0.03889465 C4.66459991 -0.04997505 4.66459991 -0.04997505 6.32714844 -0.0612793 C7.44208679 -0.06935104 8.55702515 -0.07742279 9.70574951 -0.08573914 C12.06960491 -0.09958864 14.43348037 -0.1103069 16.79736328 -0.11816406 C20.40793948 -0.1353619 24.01759669 -0.17923991 27.62792969 -0.22338867 C29.92349586 -0.2335167 32.21906983 -0.24203246 34.51464844 -0.2487793 C35.59296936 -0.26628738 36.67129028 -0.28379547 37.7822876 -0.30183411 C43.67690974 -0.2848296 47.76349663 -0.16123699 52.18652344 4.17700195 C55.01142995 9.1397159 55.64351225 13.62234605 55.62011719 19.2355957 C55.62535904 19.98357925 55.63060089 20.73156281 55.63600159 21.50221252 C55.64238696 23.07454189 55.64113025 24.64691926 55.63256836 26.21923828 C55.62405689 28.60512584 55.65286648 30.9886157 55.68457031 33.37426758 C55.76069085 48.31287484 55.76069085 48.31287484 51.18652344 54.17700195 C45.35495151 57.42585079 40.27269206 57.6176244 33.68652344 57.57543945 C32.19475586 57.57974472 32.19475586 57.57974472 30.67285156 57.58413696 C28.5784447 57.58617073 26.48401854 57.58068919 24.38964844 57.56811523 C21.1965052 57.55205217 18.00462763 57.56798778 14.81152344 57.5871582 C12.769854 57.58517565 10.72818534 57.58133173 8.68652344 57.57543945 C7.73841797 57.58151215 6.7903125 57.58758484 5.81347656 57.59384155 C0.18633021 57.53457322 -3.9364136 57.09354103 -8.81347656 54.17700195 C-13.18009778 49.41103257 -13.42868154 45.23942395 -13.41503906 39.0871582 C-13.42360931 38.22440781 -13.43217957 37.36165741 -13.44100952 36.47276306 C-13.45245398 34.65489194 -13.45352764 32.83692928 -13.44482422 31.01904297 C-13.43850153 28.25043305 -13.48545966 25.48609982 -13.53613281 22.71801758 C-13.54067951 20.94523647 -13.54208546 19.17244396 -13.54003906 17.3996582 C-13.55845856 16.57965836 -13.57687805 15.75965851 -13.59585571 14.91481018 C-13.50714895 9.35400021 -12.12517221 6.51270129 -8.29574585 2.48167419 C-5.55311914 0.06765336 -3.55926511 0.03965964 0 0 Z " fill="#FAFAFB" transform="translate(1115.8134765625,416.822998046875)"/>
<path d="M0 0 C1.26085419 0.00015106 2.52170837 0.00030212 3.82077026 0.00045776 C5.18145916 0.01066861 6.54214641 0.02110056 7.90283203 0.03173828 C9.30673012 0.03547254 10.71063083 0.03831756 12.11453247 0.04031372 C15.7937755 0.04791774 19.47285842 0.06753808 23.15203857 0.08972168 C26.9126977 0.11025007 30.67338292 0.11933034 34.43408203 0.12939453 C41.80135067 0.15078738 49.16845469 0.18594276 56.53564453 0.22705078 C56.53564453 7.15705078 56.53564453 14.08705078 56.53564453 21.22705078 C54.86542236 21.23115967 53.1952002 21.23526855 51.47436523 21.23950195 C45.27743674 21.2612737 39.08114493 21.31554483 32.88452148 21.37963867 C30.2024784 21.40561095 27.5207876 21.419333 24.83862305 21.42260742 C20.98314392 21.43188398 17.12910451 21.47285134 13.27392578 21.52001953 C12.07480057 21.51608688 10.87567535 21.51215424 9.64021301 21.50810242 C2.89175031 21.40434582 2.89175031 21.40434582 -2.69799805 24.64624023 C-5.46392481 28.68751346 -5.60719518 30.87874261 -5.66967773 35.78808594 C-5.68452713 36.79801857 -5.68452713 36.79801857 -5.69967651 37.82835388 C-5.73130662 40.05757104 -5.75605481 42.28680952 -5.78076172 44.51611328 C-5.80132995 46.06025756 -5.82232639 47.60439619 -5.84373474 49.14852905 C-5.89896896 53.21569245 -5.94837225 57.28290677 -5.99658203 61.35015869 C-6.04678722 65.49927307 -6.1024784 69.64831337 -6.15771484 73.79736328 C-6.26531295 81.94053155 -6.36624736 90.08376264 -6.46435547 98.22705078 C-14.38435547 98.22705078 -22.30435547 98.22705078 -30.46435547 98.22705078 C-30.53236353 89.01213242 -30.58730485 79.79738308 -30.61979198 70.58226967 C-30.63539089 66.30247229 -30.65652243 62.0228568 -30.69067383 57.74316406 C-30.72347486 53.60640064 -30.74125182 49.46981123 -30.7489872 45.3329277 C-30.75449373 43.76140991 -30.76524583 42.18990071 -30.78154564 40.61845779 C-30.89304099 29.41505373 -30.65620381 19.12511814 -23.26904297 10.04736328 C-16.73938041 3.46116684 -9.30119094 -0.03735418 0 0 Z " fill="#0A1435" transform="translate(1249.46435546875,395.77294921875)"/>
<path d="M0 0 C7.59 0 15.18 0 23 0 C23.02254989 11.71727131 23.04091443 23.43452831 23.05181217 35.15181637 C23.05704128 40.59202312 23.06413943 46.03221431 23.07543945 51.47241211 C23.08626735 56.71785702 23.09227662 61.96328692 23.09487724 67.20874214 C23.09673167 69.21470946 23.10035262 71.22067592 23.10573006 73.22663689 C23.11293919 76.02602824 23.113991 78.82535679 23.11352539 81.62475586 C23.11712067 82.46272705 23.12071594 83.30069824 23.12442017 84.1640625 C23.11405216 89.88594784 23.11405216 89.88594784 22 91 C14.74 91 7.48 91 0 91 C0 60.97 0 30.94 0 0 Z " fill="#6547EF" transform="translate(1622,404)"/>
<path d="M0 0 C1.43740791 -0.01441132 1.43740791 -0.01441132 2.90385437 -0.02911377 C3.9433876 -0.03336365 4.98292084 -0.03761353 6.05395508 -0.04199219 C7.12212967 -0.04769226 8.19030426 -0.05339233 9.29084778 -0.05926514 C11.55635586 -0.06872562 13.82187777 -0.07525327 16.08740234 -0.07910156 C19.54199551 -0.08877897 22.99598673 -0.11978136 26.45043945 -0.15136719 C28.6516078 -0.1579 30.8527804 -0.16314938 33.05395508 -0.16699219 C34.08336716 -0.17933899 35.11277924 -0.19168579 36.17338562 -0.20440674 C42.81930017 -0.18392997 48.11826726 0.31505491 53.32348633 4.84863281 C54.90938035 8.30028451 55.1610645 11.49008077 54.38598633 15.16113281 C52.63299338 18.18017622 50.55576231 20.57624482 47.38598633 22.16113281 C45.75181038 22.25141631 44.11395796 22.27868939 42.47729492 22.2746582 C41.45638763 22.27458267 40.43548035 22.27450714 39.38363647 22.27442932 C37.72577621 22.26668739 37.72577621 22.26668739 36.03442383 22.25878906 C34.90525543 22.25737411 33.77608704 22.25595917 32.61270142 22.25450134 C28.99543644 22.24889025 25.37823269 22.23633584 21.76098633 22.22363281 C19.31307055 22.21861924 16.86515381 22.21405609 14.41723633 22.20996094 C8.40679867 22.19891721 2.39639687 22.18216825 -3.61401367 22.16113281 C-3.7499292 23.09844238 -3.88584473 24.03575195 -4.02587891 25.00146484 C-4.66047773 28.41075417 -5.68156584 30.2347167 -7.67651367 33.03613281 C-8.49829102 34.20789063 -8.49829102 34.20789063 -9.33666992 35.40332031 C-9.75819336 35.98339844 -10.1797168 36.56347656 -10.61401367 37.16113281 C-11.27401367 36.83113281 -11.93401367 36.50113281 -12.61401367 36.16113281 C-12.78902934 31.64079225 -12.89511688 27.12132835 -12.98901367 22.59863281 C-13.03928711 21.32181641 -13.08956055 20.045 -13.14135742 18.72949219 C-13.30712193 8.09293604 -13.30712193 8.09293604 -9.71557617 3.82128906 C-6.52296123 0.76400374 -4.39700574 0.03553305 0 0 Z " fill="#F7F7F8" transform="translate(848.614013671875,414.8388671875)"/>
<path d="M0 0 C1.12093552 0.00007553 2.24187103 0.00015106 3.39677429 0.00022888 C4.60622208 0.00539017 5.81566986 0.01055145 7.06176758 0.01586914 C8.30050125 0.01728409 9.53923492 0.01869904 10.81550598 0.02015686 C14.1051142 0.02480937 17.39467343 0.03379149 20.68426514 0.04486084 C24.04251506 0.0550991 27.40077216 0.05965965 30.7590332 0.06469727 C37.34564095 0.07573394 43.93221588 0.09247773 50.51879883 0.11352539 C50.62763479 2.48977716 50.70646579 4.86096515 50.76879883 7.23852539 C50.80231445 7.90368164 50.83583008 8.56883789 50.87036133 9.25415039 C50.97107551 14.39057371 49.82251866 17.22068069 46.51879883 21.11352539 C43.47481991 23.02107434 41.11726515 23.37262387 37.55419922 23.40405273 C36.0773037 23.42319229 36.0773037 23.42319229 34.5705719 23.44271851 C33.51321335 23.44494415 32.4558548 23.4471698 31.36645508 23.44946289 C30.27417099 23.45611969 29.1818869 23.46277649 28.0565033 23.46963501 C25.74748417 23.47975582 23.43843582 23.48445221 21.12939453 23.48413086 C17.5978987 23.48850483 14.06765177 23.52483432 10.53637695 23.56274414 C8.2922406 23.56861221 6.04809831 23.57258167 3.80395508 23.57446289 C2.2209536 23.59601944 2.2209536 23.59601944 0.60597229 23.61801147 C-6.72376941 23.57235029 -6.72376941 23.57235029 -10.62402344 21.2097168 C-14.08749595 17.30050489 -13.8699112 13.89317498 -13.83666992 8.82055664 C-13.48120117 6.11352539 -13.48120117 6.11352539 -11.16870117 2.98852539 C-7.31212642 0.29789184 -4.58748658 -0.01030896 0 0 Z " fill="#F8F8F9" transform="translate(1355.481201171875,451.886474609375)"/>
<path d="M0 0 C1.1679007 0.00424484 2.33580139 0.00848969 3.53909302 0.01286316 C7.25807036 0.02961475 10.97649977 0.06726177 14.6953125 0.10546875 C17.22134632 0.12052008 19.74738867 0.1342077 22.2734375 0.14648438 C28.45591515 0.17950683 34.63807467 0.22967184 40.8203125 0.29296875 C40.87103256 2.54794502 40.90734833 4.80324868 40.9375 7.05859375 C40.95925293 8.31446289 40.98100586 9.57033203 41.00341797 10.86425781 C40.70740368 16.40722405 38.65377304 18.45950821 34.8203125 22.29296875 C32.01797697 23.22349971 29.43783419 23.42308911 26.49829102 23.43823242 C25.65383926 23.44461227 24.80938751 23.45099213 23.93934631 23.45756531 C23.03510422 23.45867813 22.13086212 23.45979095 21.19921875 23.4609375 C19.79385109 23.4659301 19.79385109 23.4659301 18.36009216 23.47102356 C16.38061005 23.47608106 14.40111943 23.47843225 12.42163086 23.47827148 C9.39748061 23.48045814 6.37369513 23.49862683 3.34960938 23.51757812 C1.42448041 23.52051227 -0.50065028 23.52249692 -2.42578125 23.5234375 C-3.32799911 23.53062302 -4.23021698 23.53780853 -5.15977478 23.54521179 C-10.44064902 23.52604329 -14.68365708 23.34327945 -18.9296875 19.85546875 C-21.73686758 16.34649365 -21.47554507 12.58290347 -21.1796875 8.29296875 C-19.85925535 5.06524571 -18.69126433 3.64524109 -15.82373047 1.6706543 C-10.53707366 -0.32804625 -5.60377183 -0.07689863 0 0 Z " fill="#F4F6FC" transform="translate(1536.1796875,452.70703125)"/>
<path d="M0 0 C2.29977677 3.44966516 2.98138594 6.71719039 3.875 10.6875 C6.49319609 22.02969537 6.49319609 22.02969537 14.25 30.3125 C21.50331914 34.67869047 28.70516147 36.55520231 37 38 C33.69335017 39.82186775 30.37959153 40.80189098 26.75 41.8125 C18.06894652 44.44312227 11.5274342 47.68846065 6.98046875 55.82421875 C3.66731967 62.5373785 2.37330469 69.68611214 1 77 C0.01 76.505 0.01 76.505 -1 76 C-1.48863737 73.91137318 -1.88949295 71.80201251 -2.25 69.6875 C-3.97942692 61.25546825 -6.28769442 51.94601606 -13.875 46.9375 C-15.22753873 46.24586088 -16.60343489 45.59777219 -18 45 C-18.639375 44.70867187 -19.27875 44.41734375 -19.9375 44.1171875 C-25.10997153 41.96894328 -30.50115555 40.95779053 -36 40 C-36 39.34 -36 38.68 -36 38 C-35.32195312 37.82984375 -34.64390625 37.6596875 -33.9453125 37.484375 C-19.33036043 34.01150444 -19.33036043 34.01150444 -8.33984375 24.51171875 C-4.38203345 16.54097545 -2.00275721 8.62363694 0 0 Z " fill="#824AF2" transform="translate(519,298)"/>
<path d="M0 0 C3.90209164 0.92334746 5.69749115 2.64898086 8.41015625 5.5703125 C10.15237336 9.05474672 9.99690779 12.76918295 9.41015625 16.5703125 C7.70763906 19.64500773 5.59789117 21.97644504 2.41015625 23.5703125 C-2.47837137 24.09810044 -6.35638725 24.30031736 -10.65234375 21.7578125 C-13.82752552 18.17292985 -14.06746746 14.54900209 -13.984375 9.93359375 C-13.39841442 6.42363186 -12.04176992 4.34845545 -9.56640625 1.83203125 C-6.40797612 -0.18412079 -3.67725688 -0.25513396 0 0 Z " fill="#7744F0" transform="translate(1635.58984375,365.4296875)"/>
<path d="M0 0 C15.84 0 31.68 0 48 0 C48.495 1.485 48.495 1.485 49 3 C48.43037033 3.00142502 47.86074066 3.00285004 47.27384949 3.00431824 C41.3525661 3.02398317 35.43231806 3.07818663 29.51147461 3.15258789 C27.30093816 3.17580542 25.09029049 3.19017237 22.87963867 3.19555664 C19.70420728 3.20481861 16.53053418 3.24574963 13.35546875 3.29296875 C12.36475876 3.2890361 11.37404877 3.28510345 10.35331726 3.28105164 C5.11789345 3.26175528 5.11789345 3.26175528 0.9152832 5.98168945 C-0.37991936 9.92182777 -0.37991936 9.92182777 -1 18 C16.82 18 34.64 18 53 18 C53 18.33 53 18.66 53 19 C32.54 19 12.08 19 -9 19 C-9 17.35 -9 15.7 -9 14 C-8.01 13.67 -7.02 13.34 -6 13 C-4.57401803 11.05113098 -4.57401803 11.05113098 -3.375 8.6875 C-2.94960938 7.90761719 -2.52421875 7.12773437 -2.0859375 6.32421875 C-0.81281334 3.79221876 -0.81281334 3.79221876 0 0 Z " fill="#626A7F" transform="translate(845,437)"/>
<path d="M0 0 C0.66 0 1.32 0 2 0 C1.9278125 0.93714844 1.855625 1.87429688 1.78125 2.83984375 C1.13709939 11.9117268 0.86606354 20.9680807 0.8125 30.0625 C0.79960937 31.12009521 0.78671875 32.17769043 0.7734375 33.26733398 C0.76294666 41.54002086 1.45116766 48.23401478 6.125 55.3125 C9 59.6937799 9 59.6937799 9 63 C1.7696258 54.15484223 -2.14966665 45.93227012 -2.16796875 34.453125 C-2.17129715 33.72309265 -2.17462555 32.9930603 -2.17805481 32.24090576 C-2.18310846 30.6977196 -2.18546362 29.15452255 -2.18530273 27.61132812 C-2.18747958 25.27194766 -2.20562478 22.93304653 -2.22460938 20.59375 C-2.22754571 19.08854326 -2.2295289 17.58333431 -2.23046875 16.078125 C-2.23765427 15.388255 -2.24483978 14.69838501 -2.25224304 13.98760986 C-2.22924112 8.99946821 -1.34318429 4.76319699 0 0 Z " fill="#492DCF" transform="translate(511,417)"/>
<path d="M0 0 C0.66 0 1.32 0 2 0 C2.04628524 8.44039195 2.08184969 16.88073111 2.10362434 25.32121849 C2.11407365 29.24023284 2.12825362 33.15916053 2.15087891 37.078125 C2.17256661 40.85823039 2.18455998 44.63825228 2.18975449 48.41841507 C2.19345759 49.86255839 2.2006886 51.306697 2.21146011 52.7508049 C2.22592017 54.76920894 2.22681645 56.78769652 2.22705078 58.80615234 C2.231492 59.95642914 2.23593323 61.10670593 2.24050903 62.2918396 C2 65 2 65 0 67 C-0.90660541 63.16586839 -1.09384905 59.67554236 -1.02172852 55.7409668 C-1.00163223 54.50005783 -0.98153595 53.25914886 -0.96083069 51.9806366 C-0.9336388 50.63682829 -0.90632789 49.29302239 -0.87890625 47.94921875 C-0.85458428 46.56631784 -0.83074178 45.18340842 -0.80735779 43.80049133 C-0.74472332 40.17217264 -0.67559904 36.54400584 -0.60510254 32.91583252 C-0.53423189 29.20893227 -0.46952728 25.5019249 -0.40429688 21.79492188 C-0.27555083 14.52982937 -0.13994549 7.26488632 0 0 Z " fill="#183FE5" transform="translate(360,397)"/>
<path d="M0 0 C1.03189453 0.0028299 2.06378906 0.00565979 3.12695312 0.00857544 C6.39725732 0.01969998 9.66727968 0.04479024 12.9375 0.0703125 C15.16536061 0.08035228 17.39322554 0.08947638 19.62109375 0.09765625 C25.05999071 0.11961395 30.49872521 0.1530139 35.9375 0.1953125 C35.9375 0.5253125 35.9375 0.8553125 35.9375 1.1953125 C21.0875 1.1953125 6.2375 1.1953125 -9.0625 1.1953125 C-9.0625 1.8553125 -9.0625 2.5153125 -9.0625 3.1953125 C-9.9803125 3.40285156 -10.898125 3.61039062 -11.84375 3.82421875 C-19.78297925 5.81736559 -25.40978505 8.05848594 -31.0625 14.1953125 C-32.06021429 15.19759299 -33.0594743 16.19834738 -34.0625 17.1953125 C-31.94450135 10.45622588 -27.09650201 7.02567202 -21.41796875 3.30859375 C-14.44761083 0.01414598 -7.55693982 -0.07905233 0 0 Z " fill="#5FA2F4" transform="translate(1530.0625,434.8046875)"/>
<path d="M0 0 C15.84 0 31.68 0 48 0 C48.495 1.485 48.495 1.485 49 3 C48.43259094 3.00142502 47.86518188 3.00285004 47.28057861 3.00431824 C41.3753626 3.02400328 35.47118195 3.07825035 29.56640625 3.15258789 C27.36270577 3.17578645 25.15889412 3.19016794 22.95507812 3.19555664 C19.78705418 3.20483239 16.62078322 3.24579414 13.453125 3.29296875 C11.97480194 3.28706978 11.97480194 3.28706978 10.46661377 3.28105164 C4.81340714 3.30983762 4.81340714 3.30983762 0.34667969 6.54418945 C-0.09772461 7.35460693 -0.54212891 8.16502441 -1 9 C-0.67 6.03 -0.34 3.06 0 0 Z " fill="#333C58" transform="translate(845,437)"/>
<path d="M0 0 C4.23580253 -0.07407906 8.47126341 -0.12856696 12.70751953 -0.16479492 C14.14899258 -0.17989483 15.59041959 -0.20037658 17.03173828 -0.22631836 C19.10200343 -0.2626513 21.17166207 -0.27971329 23.2421875 -0.29296875 C24.4885498 -0.3086792 25.73491211 -0.32438965 27.01904297 -0.34057617 C28.00275879 -0.22818604 28.98647461 -0.1157959 30 0 C30.66 0.99 31.32 1.98 32 3 C23.75 3 15.5 3 7 3 C7.33 3.99 7.66 4.98 8 6 C5 6 5 6 3.61328125 4.6875 C2.40885417 3.125 1.20442708 1.5625 0 0 Z " fill="#161B3A" transform="translate(942,396)"/>
<path d="M0 0 C0.68384766 0.00902344 1.36769531 0.01804687 2.07226562 0.02734375 C3.73583287 0.05061042 5.39921631 0.08646833 7.0625 0.125 C7.5575 1.115 7.5575 1.115 8.0625 2.125 C6.96550781 2.17398437 5.86851562 2.22296875 4.73828125 2.2734375 C3.28383075 2.34850591 1.82940484 2.42405197 0.375 2.5 C-0.7068457 2.54640625 -0.7068457 2.54640625 -1.81054688 2.59375 C-5.9934607 2.82295076 -9.03256531 3.55672784 -12.9375 5.125 C-16.34765625 5.35546875 -16.34765625 5.35546875 -20 5.3125 C-21.20785156 5.30605469 -22.41570312 5.29960937 -23.66015625 5.29296875 C-26.28808061 5.15828371 -28.44398479 4.9022803 -30.9375 4.125 C-30.6075 5.775 -30.2775 7.425 -29.9375 9.125 C-31.1100131 8.17382866 -32.27537015 7.21382991 -33.4375 6.25 C-34.0871875 5.71632813 -34.736875 5.18265625 -35.40625 4.6328125 C-35.9115625 4.13523437 -36.416875 3.63765625 -36.9375 3.125 C-36.9375 2.465 -36.9375 1.805 -36.9375 1.125 C-36.35484375 1.1971875 -35.7721875 1.269375 -35.171875 1.34375 C-23.27693373 2.79788202 -23.27693373 2.79788202 -11.5703125 1.12109375 C-7.55351585 0.01971402 -4.15547848 -0.07354829 0 0 Z " fill="#4C29DD" transform="translate(473.9375,455.875)"/>
<path d="M0 0 C0.33 0 0.66 0 1 0 C1 21.12 1 42.24 1 64 C1.66 64 2.32 64 3 64 C3 64.66 3 65.32 3 66 C3.763125 65.62875 4.52625 65.2575 5.3125 64.875 C6.199375 64.58625 7.08625 64.2975 8 64 C8.99 64.66 9.98 65.32 11 66 C9.54293274 66.50367757 8.08429904 67.00282556 6.625 67.5 C5.81289063 67.7784375 5.00078125 68.056875 4.1640625 68.34375 C2 69 2 69 0 69 C0 46.23 0 23.46 0 0 Z " fill="#0BB6F9" transform="translate(306,448)"/>
<path d="M0 0 C4.57819432 1.30515732 7.88410353 3.08893109 11.6875 5.9375 C12.61949219 6.62714844 13.55148437 7.31679688 14.51171875 8.02734375 C18.36891117 11.08524355 18.36891117 11.08524355 20 13 C20 13.66 20 14.32 20 15 C15.45566546 13.28583059 11.15204552 11.16780916 6.8125 9 C6.08869141 8.64421875 5.36488281 8.2884375 4.61914062 7.921875 C-0.76037801 5.23962199 -0.76037801 5.23962199 -3 3 C-2.01 2.01 -1.02 1.02 0 0 Z " fill="#193EDB" transform="translate(341,358)"/>
<path d="M0 0 C4.10779634 1.62149856 6.85176369 4.58663558 9.875 7.6875 C10.40440186 8.22624756 10.93380371 8.76499512 11.47924805 9.32006836 C12.99479732 10.87198522 14.49970862 12.43334255 16 14 C17.06541016 15.10988281 17.06541016 15.10988281 18.15234375 16.2421875 C19.8125 18.0625 19.8125 18.0625 22 21 C21 24 21 24 17.625 26.0625 C12.63049217 28.43262099 7.4386633 29.24018674 2 30 C2 29.34 2 28.68 2 28 C3.41396902 27.49242138 4.83131729 26.99425075 6.25 26.5 C7.03890625 26.2215625 7.8278125 25.943125 8.640625 25.65625 C11 25 11 25 15 25 C15 24.34 15 23.68 15 23 C15.99 22.67 16.98 22.34 18 22 C16.4585799 18.43082939 14.30524541 15.91782231 11.6875 13.0625 C10.88570313 12.1859375 10.08390625 11.309375 9.2578125 10.40625 C7.55370269 8.59010529 5.83879417 6.80688469 4.0625 5.0625 C2 3 2 3 0 0 Z " fill="#3048EB" transform="translate(461,409)"/>
<path d="M0 0 C2.41015625 0.6796875 2.41015625 0.6796875 5.0625 1.875 C8.41371745 3.48125805 8.41371745 3.48125805 12 4 C12 4.66 12 5.32 12 6 C13.2065625 5.7215625 13.2065625 5.7215625 14.4375 5.4375 C15.7059375 5.2209375 15.7059375 5.2209375 17 5 C17.33 5.33 17.66 5.66 18 6 C20.85877909 6.23701239 23.69883297 6.42219182 26.5625 6.5625 C27.36880859 6.60568359 28.17511719 6.64886719 29.00585938 6.69335938 C31.00368805 6.79975262 33.0018207 6.90040888 35 7 C35 7.66 35 8.32 35 9 C20.77746065 9.29699038 9.95765987 8.4541956 -3 2 C-2.01 1.34 -1.02 0.68 0 0 Z " fill="#304FE7" transform="translate(427,431)"/>
<path d="M0 0 C-0.33 0.99 -0.66 1.98 -1 3 C-1.55975525 2.83923477 -2.1195105 2.67846954 -2.69622803 2.51283264 C-5.14388898 1.9679695 -7.35422285 1.84084326 -9.86035156 1.79467773 C-11.30139252 1.7647599 -11.30139252 1.7647599 -12.77154541 1.73423767 C-14.31548981 1.70916893 -14.31548981 1.70916893 -15.890625 1.68359375 C-16.95037537 1.66281265 -18.01012573 1.64203156 -19.10198975 1.62062073 C-22.48459438 1.55527814 -25.86727612 1.49631119 -29.25 1.4375 C-31.54427878 1.39430025 -33.83854979 1.35068549 -36.1328125 1.30664062 C-41.75512702 1.1996124 -47.3775181 1.09781761 -53 1 C-53 0.67 -53 0.34 -53 0 C-46.25578759 -0.16852045 -39.51140925 -0.3283552 -32.7668457 -0.48217773 C-30.47285308 -0.53551886 -28.17890563 -0.59084188 -25.88500977 -0.64819336 C-22.58619936 -0.73032438 -19.28729168 -0.80530679 -15.98828125 -0.87890625 C-14.96414627 -0.90594131 -13.94001129 -0.93297638 -12.88484192 -0.96083069 C-11.92422348 -0.98092697 -10.96360504 -1.00102325 -9.97387695 -1.02172852 C-8.71145927 -1.05170677 -8.71145927 -1.05170677 -7.42353821 -1.08229065 C-4.85356562 -0.99502786 -2.50363653 -0.57027984 0 0 Z " fill="#EFF0F2" transform="translate(899,417)"/>
<path d="M0 0 C3.46723554 1.35945566 6.8792271 2.7905349 10.25 4.375 C11.12140625 4.77460938 11.9928125 5.17421875 12.890625 5.5859375 C15 7 15 7 15.796875 9.1640625 C15.86390625 9.76992188 15.9309375 10.37578125 16 11 C12.05611828 10.41125507 9.17649717 9.21364728 5.75 7.1875 C4.87859375 6.68605469 4.0071875 6.18460937 3.109375 5.66796875 C1 4 1 4 0.203125 1.80078125 C0.13609375 1.20652344 0.0690625 0.61226563 0 0 Z " fill="#3E16CD" transform="translate(510,478)"/>
<path d="M0 0 C-1.98 0.99 -3.96 1.98 -6 3 C-6 4.65 -6 6.3 -6 8 C-10.29 7.34 -14.58 6.68 -19 6 C-19 5.34 -19 4.68 -19 4 C-18.27554687 3.80664062 -17.55109375 3.61328125 -16.8046875 3.4140625 C-12.63525816 2.2910962 -8.51386112 1.18030215 -4.4375 -0.25 C-2 -1 -2 -1 0 0 Z " fill="#8573F2" transform="translate(502,332)"/>
<path d="M0 0 C0.33 0 0.66 0 1 0 C1 3.96 1 7.92 1 12 C-1.64 12.33 -4.28 12.66 -7 13 C-7 11.35 -7 9.7 -7 8 C-6.01 7.67 -5.02 7.34 -4 7 C-2.77554716 5.37051936 -2.77554716 5.37051936 -1.8125 3.4375 C-1.214375 2.303125 -0.61625 1.16875 0 0 Z " fill="#515B78" transform="translate(843,443)"/>
<path d="M0 0 C1.32 1.32 2.64 2.64 4 4 C-5.57 4 -15.14 4 -25 4 C-25 3.34 -25 2.68 -25 2 C-16.75 2 -8.5 2 0 2 C0 1.34 0 0.68 0 0 Z " fill="#080B26" transform="translate(1059,490)"/>
<path d="M0 0 C0.68384766 0.00902344 1.36769531 0.01804687 2.07226562 0.02734375 C3.73583287 0.05061042 5.39921631 0.08646833 7.0625 0.125 C7.3925 0.785 7.7225 1.445 8.0625 2.125 C6.41701172 2.21587891 6.41701172 2.21587891 4.73828125 2.30859375 C3.28384346 2.39304498 1.82941695 2.47769066 0.375 2.5625 C-0.34623047 2.60181641 -1.06746094 2.64113281 -1.81054688 2.68164062 C-4.91748937 2.866071 -7.78862508 3.09104607 -10.83203125 3.78515625 C-11.52683594 3.89730469 -12.22164063 4.00945312 -12.9375 4.125 C-13.5975 3.465 -14.2575 2.805 -14.9375 2.125 C-9.77803135 0.4208322 -5.4949667 -0.09725605 0 0 Z " fill="#5B2FE5" transform="translate(473.9375,455.875)"/>
<path d="M0 0 C5.34844008 0.53484401 9.35796103 2.46690767 14 5 C12.68 6.65 11.36 8.3 10 10 C6.66666667 6.66666667 3.33333333 3.33333333 0 0 Z " fill="#D9E3F9" transform="translate(339,363)"/>
<path d="M0 0 C2.41015625 0.6796875 2.41015625 0.6796875 5.0625 1.875 C8.41371745 3.48125805 8.41371745 3.48125805 12 4 C12 4.99 12 5.98 12 7 C12.99 7.33 13.98 7.66 15 8 C8.30965634 7.55397709 2.97187878 4.92654458 -3 2 C-2.01 1.34 -1.02 0.68 0 0 Z " fill="#4771EC" transform="translate(427,431)"/>
<path d="M0 0 C0.33 0 0.66 0 1 0 C1 2.64 1 5.28 1 8 C1.66 8 2.32 8 3 8 C3 8.66 3 9.32 3 10 C3.763125 9.62875 4.52625 9.2575 5.3125 8.875 C6.199375 8.58625 7.08625 8.2975 8 8 C8.99 8.66 9.98 9.32 11 10 C9.54293274 10.50367757 8.08429904 11.00282556 6.625 11.5 C5.81289063 11.7784375 5.00078125 12.056875 4.1640625 12.34375 C2 13 2 13 0 13 C0 8.71 0 4.42 0 0 Z " fill="#22CBFB" transform="translate(306,504)"/>
<path d="M0 0 C7.50513282 0.23825818 12.24976491 2.11290802 18 7 C18.99 8.485 18.99 8.485 20 10 C17.45331883 8.77759304 15.06020663 7.44308541 12.625 6 C9.51803114 4.20649223 6.450237 3.01938821 3 2 C2.01 1.67 1.02 1.34 0 1 C0 0.67 0 0.34 0 0 Z " fill="#4C51EE" transform="translate(1573,401)"/>
<path d="M0 0 C4.32504836 1.65863505 7.09418825 4.871041 10.25 8.125 C11.08144531 8.96998047 11.08144531 8.96998047 11.9296875 9.83203125 C13.29104485 11.21686028 14.64614859 12.60783204 16 14 C13 14 13 14 11.3515625 12.64453125 C10.78179687 12.03996094 10.21203125 11.43539063 9.625 10.8125 C9.0165625 10.17570312 8.408125 9.53890625 7.78125 8.8828125 C7.1934375 8.26148438 6.605625 7.64015625 6 7 C5.04474366 6.05936493 4.0868512 5.12139041 3.125 4.1875 C1 2 1 2 0 0 Z " fill="#385CED" transform="translate(461,409)"/>
<path d="M0 0 C0.66 0 1.32 0 2 0 C0.50051527 3.11431444 -1.20094464 6.0495492 -3 9 C-3.8353125 10.3921875 -3.8353125 10.3921875 -4.6875 11.8125 C-5.120625 12.534375 -5.55375 13.25625 -6 14 C-6.70703125 12.328125 -6.70703125 12.328125 -7 10 C-5.63671875 7.421875 -5.63671875 7.421875 -3.6875 4.75 C-2.73423828 3.41195313 -2.73423828 3.41195313 -1.76171875 2.046875 C-1.18035156 1.37140625 -0.59898437 0.6959375 0 0 Z " fill="#4F24D7" transform="translate(520,402)"/>
<path d="M0 0 C0.99 0.33 1.98 0.66 3 1 C0 4 -3 7 -6 10 C-6.66 9.34 -7.32 8.68 -8 8 C-5.36 5.36 -2.72 2.72 0 0 Z " fill="#703BE0" transform="translate(528,393)"/>
<path d="M0 0 C3.96 0 7.92 0 12 0 C11.67 0.99 11.34 1.98 11 3 C5.71910976 3.30466674 4.422832 3.317124 0 0 Z " fill="#EAEEFB" transform="translate(446,440)"/>
<path d="M0 0 C2 0 2 0 3.62109375 1.609375 C4.22050781 2.31578125 4.81992187 3.0221875 5.4375 3.75 C6.33275391 4.79414063 6.33275391 4.79414063 7.24609375 5.859375 C8.89081098 7.86673589 10.46126108 9.91070312 12 12 C9 12 9 12 6.73828125 9.8828125 C5.93777344 8.97273438 5.13726563 8.06265625 4.3125 7.125 C3.50425781 6.22007812 2.69601562 5.31515625 1.86328125 4.3828125 C0 2 0 2 0 0 Z " fill="#121737" transform="translate(694,389)"/>
<path d="M0 0 C5.75 1.75 5.75 1.75 8 4 C7.2575 3.979375 6.515 3.95875 5.75 3.9375 C3.06173778 3.88266896 3.06173778 3.88266896 0.8125 4.625 C0.214375 4.74875 -0.38375 4.8725 -1 5 C-1.66 4.34 -2.32 3.68 -3 3 C-2.01 2.01 -1.02 1.02 0 0 Z " fill="#0E41DA" transform="translate(341,358)"/>
<path d="M0 0 C1.22589844 0.15275391 1.22589844 0.15275391 2.4765625 0.30859375 C3.41628906 0.43427734 3.41628906 0.43427734 4.375 0.5625 C1.36032733 2.13397831 -1.23036271 3.1158372 -4.625 3.5625 C-5.285 3.2325 -5.945 2.9025 -6.625 2.5625 C-6.625 1.9025 -6.625 1.2425 -6.625 0.5625 C-4.10446405 -0.69776798 -2.7707902 -0.35624445 0 0 Z " fill="#9451ED" transform="translate(551.625,335.4375)"/>
<path d="M0 0 C1.4540625 0.0309375 1.4540625 0.0309375 2.9375 0.0625 C1.9475 0.5575 1.9475 0.5575 0.9375 1.0625 C0.9375 1.7225 0.9375 2.3825 0.9375 3.0625 C-0.0525 3.3925 -1.0425 3.7225 -2.0625 4.0625 C-2.3925 6.0425 -2.7225 8.0225 -3.0625 10.0625 C-3.3925 10.0625 -3.7225 10.0625 -4.0625 10.0625 C-4.08939216 8.58343108 -4.10884621 7.10422517 -4.125 5.625 C-4.13660156 4.80128906 -4.14820313 3.97757812 -4.16015625 3.12890625 C-4.00103255 -0.23815127 -3.43619093 0.07012635 0 0 Z " fill="#DCDEE4" transform="translate(840.0625,454.9375)"/>
<path d="M0 0 C0.66 0.66 1.32 1.32 2 2 C1.04956626 3.33897583 0.08940853 4.67105427 -0.875 6 C-1.40867187 6.7425 -1.94234375 7.485 -2.4921875 8.25 C-2.98976563 8.8275 -3.48734375 9.405 -4 10 C-4.66 10 -5.32 10 -6 10 C-4.6302836 6.00499382 -2.74277578 3.19990508 0 0 Z " fill="#1B2241" transform="translate(1228,404)"/>
<path d="M0 0 C0.57234375 0.21527344 1.1446875 0.43054688 1.734375 0.65234375 C0.744375 0.65234375 -0.245625 0.65234375 -1.265625 0.65234375 C-1.265625 1.31234375 -1.265625 1.97234375 -1.265625 2.65234375 C-3.56931236 3.71886567 -5.90580687 4.7165538 -8.265625 5.65234375 C-8.925625 5.32234375 -9.585625 4.99234375 -10.265625 4.65234375 C-9.02618224 3.78292881 -7.77355441 2.93228918 -6.515625 2.08984375 C-5.81953125 1.61417969 -5.1234375 1.13851563 -4.40625 0.6484375 C-2.265625 -0.34765625 -2.265625 -0.34765625 0 0 Z " fill="#2A2F4A" transform="translate(1239.265625,398.34765625)"/>
<path d="M0 0 C-0.39803561 2.88575819 -0.79009069 3.82189513 -3.0625 5.75 C-3.701875 6.1625 -4.34125 6.575 -5 7 C-5.66 6.34 -6.32 5.68 -7 5 C-2.25 0 -2.25 0 0 0 Z " fill="#161D39" transform="translate(982,451)"/>
<path d="M0 0 C1.32 0.33 2.64 0.66 4 1 C3.071875 1.763125 2.14375 2.52625 1.1875 3.3125 C-0.98276101 5.11848552 -3.05568065 6.9476629 -5 9 C-3.7508258 5.54074837 -2.32472205 2.85306797 0 0 Z " fill="#1F96F6" transform="translate(1501,443)"/>
<path d="M0 0 C2 3 2 3 2 7 C1.01 7 0.02 7 -1 7 C-1.33 7.99 -1.66 8.98 -2 10 C-1.125 2.25 -1.125 2.25 0 0 Z " fill="#975EEA" transform="translate(519,298)"/>
<path d="M0 0 C0.66 0.33 1.32 0.66 2 1 C0.84826645 3.46800047 -0.04783565 5.04783565 -2 7 C-4.125 6.625 -4.125 6.625 -6 6 C-5.195625 5.38125 -4.39125 4.7625 -3.5625 4.125 C-0.96125481 2.25835959 -0.96125481 2.25835959 0 0 Z " fill="#1F2542" transform="translate(902,430)"/>
<path d="M0 0 C-1.4638611 4.39158329 -3.97831338 4.87947433 -8 7 C-6.13932792 2.84926997 -4.83061881 0 0 0 Z " fill="#DFE0E6" transform="translate(845,416)"/>
<path d="M0 0 C0.66 0 1.32 0 2 0 C2 0.66 2 1.32 2 2 C2.763125 1.62875 3.52625 1.2575 4.3125 0.875 C5.199375 0.58625 6.08625 0.2975 7 0 C7.99 0.66 8.98 1.32 10 2 C6.52674819 3.1577506 3.63932552 3.06866652 0 3 C0 2.01 0 1.02 0 0 Z " fill="#0FB9F4" transform="translate(307,512)"/>
<path d="M0 0 C1.98 0 3.96 0 6 0 C5.67 1.65 5.34 3.3 5 5 C3.35 3.35 1.7 1.7 0 0 Z " fill="#21284B" transform="translate(944,398)"/>
<path d="M0 0 C2.375 0.25 2.375 0.25 5 1 C6.3125 3.0625 6.3125 3.0625 7 5 C3.34683329 3.75023244 2.21934164 3.32901247 0 0 Z " fill="#1931C0" transform="translate(354,368)"/>
</svg>
