<?xml version="1.0" encoding="UTF-8"?>
<svg version="1.1" xmlns="http://www.w3.org/2000/svg" width="1254" height="1254">
<path d="M0 0 C413.82 0 827.64 0 1254 0 C1254 413.82 1254 827.64 1254 1254 C840.18 1254 426.36 1254 0 1254 C0 840.18 0 426.36 0 0 Z " fill="#FDFDFD" transform="translate(0,0)"/>
<path d="M0 0 C0.90621094 0.73605469 1.81242188 1.47210938 2.74609375 2.23046875 C3.62136719 2.91496094 4.49664063 3.59945313 5.3984375 4.3046875 C21.0666113 16.75179767 35.02440878 31.13526739 48.05078125 46.2890625 C50.19764426 48.74756691 52.41146507 51.14075775 54.62109375 53.54296875 C57.89138848 57.12308087 61.02635992 60.75963112 64.05859375 64.54296875 C68.13293225 69.59803298 72.4971044 74.31072981 76.9440918 79.03393555 C81.00761572 83.37323468 84.78779245 87.87779204 88.50390625 92.51953125 C90.98516084 95.51951502 93.5947698 98.38197283 96.24609375 101.23046875 C100.53572427 105.84043123 104.55020722 110.6083067 108.5 115.515625 C110.83439965 118.3372037 113.26599973 121.03637587 115.74609375 123.73046875 C119.76461026 128.10083694 123.54396451 132.6052135 127.2734375 137.22265625 C130.16289964 140.73748381 133.13297469 144.17451995 136.12109375 147.60546875 C143.66495897 156.27218776 151.13479766 164.9915343 158.37109375 173.91796875 C161.25859202 177.46943721 164.22577396 180.90977165 167.30859375 184.29296875 C170.86278597 188.19585109 174.16640328 192.22832167 177.4296875 196.375 C180.93394061 200.6947454 184.59980884 204.8714572 188.26660156 209.0534668 C188.8025293 209.66617432 189.33845703 210.27888184 189.890625 210.91015625 C190.36862549 211.45397949 190.84662598 211.99780273 191.33911133 212.55810547 C192.8852611 214.39588543 194.3115563 216.30482379 195.74609375 218.23046875 C195.75195999 217.28436737 195.75782623 216.33826599 195.76387024 215.36349487 C195.82140542 206.3908472 195.89432382 197.41843476 195.98180866 188.44602776 C196.02629064 183.83464219 196.06559379 179.22334049 196.0925293 174.61181641 C196.11878582 170.15068277 196.15934082 165.6898758 196.20928001 161.22894669 C196.22579922 159.53799671 196.23740553 157.84699044 196.24370766 156.15597153 C196.34177113 132.23322112 202.3638742 109.49884617 219.64453125 92.11328125 C234.36763077 78.07541972 250.06901669 71.89024256 269.64990234 67.49438477 C282.40413531 64.54098817 292.45367849 59.65896541 301.74609375 50.23046875 C303.07888894 48.89659749 304.41215532 47.56319671 305.74609375 46.23046875 C305.8146706 76.77045471 305.86769431 107.31042289 305.89928974 137.85046756 C305.90304144 141.46370701 305.90692444 145.07694632 305.91088867 148.69018555 C305.9116756 149.40945504 305.91246253 150.12872454 305.91327331 150.86979008 C305.92629377 162.4851439 305.9499289 174.10045274 305.97755214 185.71577995 C306.0057002 197.65218022 306.02228978 209.58855709 306.02835923 221.52498919 C306.03209053 228.22192085 306.04137196 234.9187446 306.06328392 241.61564445 C306.08377504 247.92996347 306.08990217 254.24413973 306.08541679 260.55848885 C306.08623637 262.8653758 306.0921262 265.17226796 306.10371017 267.47912598 C306.24932199 297.99532941 300.61787428 322.00746255 278.74609375 344.23046875 C278.10027344 344.90078125 277.45445312 345.57109375 276.7890625 346.26171875 C262.08249189 360.35952064 240.8581234 365.63222901 221.12109375 365.60546875 C219.88431885 365.60385742 218.64754395 365.60224609 217.37329102 365.60058594 C207.87528971 365.473589 199.71879002 364.34673452 190.74609375 361.23046875 C189.76253906 360.91851563 188.77898437 360.6065625 187.765625 360.28515625 C164.33311773 352.41923703 144.69079508 335.78154111 127.74609375 318.23046875 C125.13584706 315.6073637 122.51227197 312.99828525 119.87890625 310.3984375 C114.9210135 305.49360089 110.03547274 300.59165669 105.51171875 295.27734375 C103.35175955 292.77332026 101.11121382 290.35049177 98.87109375 287.91796875 C95.56272461 284.2952297 92.38597017 280.61353984 89.30859375 276.79296875 C86.08664084 272.79820174 82.73929273 268.9851745 79.24609375 265.23046875 C75.01533655 260.67802811 71.02334027 255.98433115 67.125 251.14453125 C64.38704444 247.79064809 61.57396333 244.50850891 58.74609375 241.23046875 C55.2098588 237.1282813 51.71745549 233.00244389 48.30859375 228.79296875 C44.70973177 224.35807349 40.99873487 220.03482624 37.24609375 215.73046875 C32.72891626 210.54840845 28.30999916 205.30565134 23.98046875 199.96484375 C20.10210849 195.21859868 16.12196506 190.5584638 12.15332031 185.88769531 C9.39068681 182.6342678 6.63565727 179.37439642 3.88037109 176.11474609 C1.54414979 173.35178726 -0.79630475 170.59260995 -3.14453125 167.83984375 C-3.62341797 167.27716797 -4.10230469 166.71449219 -4.59570312 166.13476562 C-5.91281499 164.58747887 -7.23173146 163.04172878 -8.55078125 161.49609375 C-10.74079049 158.8892578 -12.83662786 156.21686794 -14.92285156 153.52636719 C-15.54814758 152.72052185 -16.1734436 151.91467651 -16.81768799 151.08441162 C-17.52861603 150.1667099 -17.52861603 150.1667099 -18.25390625 149.23046875 C-18.25537281 149.91055213 -18.25683937 150.59063551 -18.25835037 151.29132748 C-18.29555714 167.91272079 -18.35475356 184.53388 -18.43780899 201.15510464 C-18.47745665 209.19333119 -18.50992105 217.23146188 -18.52490234 225.26977539 C-18.53799348 232.28379934 -18.5651457 239.29761106 -18.60851932 246.31151539 C-18.63096827 250.01827503 -18.64682705 253.72477456 -18.6457901 257.4316082 C-18.64627723 275.29409996 -18.89926516 291.64197724 -26.25390625 308.23046875 C-26.72957031 309.39320313 -27.20523438 310.5559375 -27.6953125 311.75390625 C-35.44242769 329.03443887 -48.46519477 342.19881624 -64.25390625 352.23046875 C-65.23359375 352.87757813 -66.21328125 353.5246875 -67.22265625 354.19140625 C-85.38104002 365.13422173 -106.07481283 366.08467909 -126.69140625 365.60546875 C-128.99540695 365.57526193 -131.29944683 365.54790549 -133.60351562 365.5234375 C-139.154526 365.45845379 -144.70402142 365.35899475 -150.25390625 365.23046875 C-150.34558115 325.5181183 -150.41600548 285.80578172 -150.45816757 246.09334648 C-150.46317004 241.39857522 -150.46834736 236.70380416 -150.47363281 232.0090332 C-150.47468205 231.07443944 -150.4757313 230.13984568 -150.47681233 229.1769309 C-150.49418925 214.06964415 -150.5257119 198.96241865 -150.56251743 183.85516817 C-150.60000252 168.33888963 -150.62215806 152.82264304 -150.63026023 137.30632108 C-150.63573235 127.74183197 -150.65297792 118.17751603 -150.68557212 108.61308026 C-150.70681357 102.04292709 -150.71308465 95.47286268 -150.70791176 88.90267772 C-150.70536486 85.11928029 -150.7091026 81.33618421 -150.73072815 77.55284119 C-150.90122203 46.15666615 -145.53691206 20.91042141 -123.25390625 -2.76953125 C-112.83301947 -12.65733636 -100.16790735 -19.40609587 -86.25390625 -22.76953125 C-84.91972656 -23.10597656 -84.91972656 -23.10597656 -83.55859375 -23.44921875 C-54.39961523 -29.80326482 -22.78914656 -17.96539233 0 0 Z " fill="#5263FC" transform="translate(549.25390625,357.76953125)"/>
<path d="M0 0 C11.27966714 7.45612115 20.98033411 16.85483612 30.45458984 26.4362793 C32.13968716 28.13984816 33.83286615 29.83506266 35.52734375 31.52929688 C40.61535408 36.63398327 45.61659587 41.76146795 50.30029297 47.24487305 C52.50241065 49.81598821 54.81767816 52.27292025 57.125 54.75 C61.64370279 59.63306353 65.90053679 64.66921746 70.0703125 69.85546875 C71.58273177 71.80568205 71.58273177 71.80568205 72.75 72.9375 C72.85300451 74.75796866 72.88521666 76.58246511 72.89044189 78.40583801 C72.89615204 79.59309479 72.90186218 80.78035156 72.90774536 82.00358582 C72.90942215 83.97564751 72.90942215 83.97564751 72.91113281 85.98754883 C72.91575908 87.37707654 72.92078348 88.76660298 72.92617798 90.15612793 C72.93933348 93.94394323 72.94575452 97.73174077 72.95018864 101.51957536 C72.95311787 103.88876666 72.95722268 106.2579531 72.96169281 108.62714195 C72.97538388 116.04673739 72.9850393 123.46632173 72.9888947 130.88592893 C72.99336184 139.43565544 73.01084008 147.98522098 73.0398953 156.53489858 C73.06158694 163.1490676 73.07160317 169.76319163 73.07293582 176.37739581 C73.07397968 180.32375594 73.07979606 184.26996511 73.09775543 188.21628761 C73.11436299 191.93863606 73.1163309 195.66072225 73.10761642 199.38309479 C73.10649136 201.38228276 73.12011555 203.3814625 73.1343689 205.38059998 C73.08607094 215.94597419 71.25062936 225.37366261 66.75 234.9375 C66.30527344 236.02160156 65.86054687 237.10570312 65.40234375 238.22265625 C57.95504355 255.6111193 44.4697668 268.94965278 28.75 278.9375 C27.7703125 279.58460938 26.790625 280.23171875 25.78125 280.8984375 C7.62286623 291.84125298 -13.07090658 292.79171034 -33.6875 292.3125 C-35.9915007 292.28229318 -38.29554058 292.25493674 -40.59960938 292.23046875 C-46.15061975 292.16548504 -51.70011517 292.066026 -57.25 291.9375 C-57.45601379 255.12951243 -57.61459375 218.32161173 -57.70958797 181.51316425 C-57.72084428 177.16730387 -57.73249319 172.82144462 -57.74438477 168.47558594 C-57.74674556 167.61040614 -57.74910635 166.74522634 -57.75153869 165.85382897 C-57.7906974 151.84609407 -57.86165647 137.8386917 -57.94437516 123.83115405 C-58.02854848 109.45737843 -58.07853092 95.08377693 -58.09679645 80.70976496 C-58.10914394 71.84048486 -58.14813511 62.97214464 -58.2212482 54.10315388 C-58.26883437 48.02075544 -58.28319851 41.93884263 -58.2715124 35.85627156 C-58.26574889 32.34687418 -58.27455918 28.83911842 -58.32284927 25.33001328 C-58.36760637 21.52171656 -58.35687858 17.71744666 -58.33229065 13.90905762 C-58.35850622 12.80398534 -58.3847218 11.69891307 -58.41173178 10.56035376 C-58.33324447 6.06596809 -58.17442957 3.11438899 -55.34317577 -0.4900732 C-38.70775373 -15.74647928 -17.77562311 -10.74745467 0 0 Z " fill="#5414DF" transform="translate(456.25,431.0625)"/>
<path d="M0 0 C0.33 0 0.66 0 1 0 C1 77.88 1 155.76 1 236 C0.34 234.68 -0.32 233.36 -1 232 C-1.47308594 232.47050781 -1.94617188 232.94101562 -2.43359375 233.42578125 C-9.66777763 240.23691344 -16.2293807 242.57543813 -26.16015625 242.296875 C-30.95386703 241.7957443 -35.42943759 240.4872465 -40 239 C-41.216875 238.608125 -42.43375 238.21625 -43.6875 237.8125 C-44.450625 237.544375 -45.21375 237.27625 -46 237 C-46 236.34 -46 235.68 -46 235 C-46.87527344 234.75894531 -47.75054688 234.51789063 -48.65234375 234.26953125 C-52.30390929 232.88474852 -54.59089257 231.20258737 -57.5625 228.6875 C-58.47128906 227.92824219 -59.38007812 227.16898438 -60.31640625 226.38671875 C-62.98490041 224.01342919 -65.49898488 221.54842773 -68 219 C-70.62626787 216.3695301 -73.25703188 213.74410948 -75.90234375 211.1328125 C-86.85033366 200.30235143 -86.85033366 200.30235143 -91 195 C-91 194.34 -91 193.68 -91 193 C-91.99 192.67 -92.98 192.34 -94 192 C-95.35827971 190.35360035 -96.69254251 188.68704193 -98 187 C-98.66 186.67 -99.32 186.34 -100 186 C-103 181.5 -103 181.5 -103 179 C-103.99 178.67 -104.98 178.34 -106 178 C-107.57136939 174.85726121 -107.16512161 171.49203416 -107.17700195 168.04052734 C-107.18357315 167.21737534 -107.19014435 166.39422333 -107.19691467 165.54612732 C-107.21669065 162.80939644 -107.22832865 160.07272093 -107.23828125 157.3359375 C-107.24235678 156.39790913 -107.2464323 155.45988075 -107.25063133 154.49342728 C-107.27152455 149.51482614 -107.28580409 144.53625272 -107.29516602 139.55761719 C-107.30615112 134.45176169 -107.34044876 129.34635164 -107.38033772 124.24065208 C-107.40670933 120.28709194 -107.4148766 116.33363376 -107.41844749 112.37999344 C-107.42327195 110.50083075 -107.43476513 108.62167131 -107.45348549 106.74259567 C-107.67813757 82.66836427 -101.55696353 63.11433472 -84.59423828 45.57080078 C-72.08146029 33.24197787 -57.00288278 26.08287772 -39.97460938 22.42675781 C-23.77079613 18.92474674 -10.20163398 13.66290266 0 0 Z " fill="#017CF3" transform="translate(854,404)"/>
<path d="M0 0 C10.00555725 8.40602939 17.22498538 20.15285352 19.359375 33.1171875 C19.63051097 38.04420295 19.59292691 42.96595985 19.5546875 47.8984375 C19.55095106 49.32189738 19.54810707 50.74535986 19.54611206 52.16882324 C19.53852525 55.89078034 19.51892019 59.61257797 19.4967041 63.33447266 C19.47613814 67.14223067 19.4670875 70.95001479 19.45703125 74.7578125 C19.43566887 82.21101814 19.40052801 89.66406004 19.359375 97.1171875 C12.429375 97.1171875 5.499375 97.1171875 -1.640625 97.1171875 C-1.640625 93.1571875 -1.640625 89.1971875 -1.640625 85.1171875 C-2.878125 86.0453125 -4.115625 86.9734375 -5.390625 87.9296875 C-6.80729167 88.9921875 -8.22395833 90.0546875 -9.640625 91.1171875 C-10.29804687 91.64441406 -10.95546875 92.17164063 -11.6328125 92.71484375 C-13.73921832 94.18604937 -15.57474764 94.96281964 -18.015625 95.7421875 C-18.74523437 95.98195313 -19.47484375 96.22171875 -20.2265625 96.46875 C-34.5427137 100.31418867 -51.17435674 99.14765211 -64.390625 92.4296875 C-77.55784258 84.64035966 -86.58604995 72.76289945 -91.390625 58.3046875 C-95.0484878 43.65291485 -93.54565313 28.07641405 -85.80859375 15.02734375 C-83.87815955 12.25163067 -81.84395414 9.68015948 -79.640625 7.1171875 C-79.04636719 6.40046875 -78.45210937 5.68375 -77.83984375 4.9453125 C-57.52658127 -17.49932013 -23.49766542 -16.75425256 0 0 Z " fill="#623CF8" transform="translate(1019.640625,815.8828125)"/>
<path d="M0 0 C11.77086214 9.53001167 18.35932329 22.95434358 20.32226562 37.77294922 C21.85460074 52.77280739 17.61710917 66.90265944 8.32226562 78.77294922 C3.16055983 84.93473551 -2.63667803 88.98161118 -9.67773438 92.77294922 C-10.35835937 93.16482422 -11.03898438 93.55669922 -11.74023438 93.96044922 C-24.02282243 100.69606202 -40.93513313 100.47306877 -54.41601562 98.12060547 C-57.34260098 97.2174341 -59.94367923 96.15013301 -62.67773438 94.77294922 C-63.69996094 94.26376953 -64.7221875 93.75458984 -65.77539062 93.22998047 C-80.84243416 85.07099903 -89.46305639 72.53070638 -94.43164062 56.31201172 C-97.89694668 41.72380022 -95.58323894 28.74195776 -88.61523438 15.71044922 C-80.09048748 1.92306787 -67.73228944 -7.11830061 -52.11523438 -11.22705078 C-33.91731596 -14.65306476 -15.05027645 -11.00737623 0 0 Z " fill="#0D0739" transform="translate(662.677734375,815.22705078125)"/>
<path d="M0 0 C7.26 0 14.52 0 22 0 C22 48.84 22 97.68 22 148 C0 148 0 148 -6.1875 142.375 C-7.65112305 140.45849609 -7.65112305 140.45849609 -8.63671875 138.7734375 C-10.99531966 134.94552803 -13.68414411 131.49917288 -16.5 128 C-17.41372798 126.82887927 -18.32648973 125.65700402 -19.23828125 124.484375 C-22.41607369 120.44011729 -25.7418039 116.52827043 -29.08154297 112.61767578 C-32.49201218 108.61940577 -35.79597993 104.54967247 -39.0625 100.43359375 C-47.23013901 90.17464395 -55.66079803 80.11957983 -64 70 C-84.54512635 45.06859206 -84.54512635 45.06859206 -91 37 C-91.33 73.3 -91.66 109.6 -92 147 C-98.93 147 -105.86 147 -113 147 C-113 98.82 -113 50.64 -113 1 C-93 1 -93 1 -86 7 C-83.8828125 9.38671875 -83.8828125 9.38671875 -82.125 11.6875 C-81.45597656 12.54859375 -80.78695312 13.4096875 -80.09765625 14.296875 C-79.40542969 15.18890625 -78.71320313 16.0809375 -78 17 C-76.52672967 18.81729602 -75.04744982 20.629735 -73.5625 22.4375 C-72.81097656 23.35402344 -72.05945313 24.27054688 -71.28515625 25.21484375 C-70.53105469 26.13394531 -69.77695313 27.05304687 -69 28 C-67.49971683 29.83310162 -65.99971592 31.66643427 -64.5 33.5 C-63.75105469 34.41523437 -63.00210938 35.33046875 -62.23046875 36.2734375 C-60.79500065 38.02817784 -59.36006204 39.78335155 -57.92578125 41.5390625 C-53.97432135 46.37430548 -50.01220395 51.20038826 -46.0390625 56.01782227 C-36.19946268 67.95075398 -26.37934727 79.89017362 -16.90185547 92.11376953 C-13.41886036 96.5657666 -9.69001057 100.7339311 -5.77734375 104.81640625 C-3.90075705 107.12192705 -2.95023433 109.19853194 -2 112 C-1.34 112 -0.68 112 0 112 C0 75.04 0 38.08 0 0 Z " fill="#0E0739" transform="translate(291,765)"/>
<path d="M0 0 C0.825 0.26683594 1.65 0.53367187 2.5 0.80859375 C16.88369989 5.86536324 27.17288338 16.65703347 34 30 C38.37564493 40.26659102 38 49.73902345 38 61 C7.31 61 -23.38 61 -55 61 C-50.83734335 72.44730578 -47.74477168 78.51558771 -37.30859375 83.9921875 C-31.55460654 86.50408039 -26.82875366 87.31623225 -20.625 87.25 C-19.90828125 87.25773438 -19.1915625 87.26546875 -18.453125 87.2734375 C-10.93394601 87.24629245 -4.70094886 85.72575006 1.875 82 C2.80054688 81.484375 3.72609375 80.96875 4.6796875 80.4375 C7.07905603 79.07341124 7.07905603 79.07341124 9 77 C13.93103209 77.24445626 16.93800174 78.93710425 20.875 81.8125 C21.84179688 82.49957031 22.80859375 83.18664062 23.8046875 83.89453125 C24.52914062 84.58933594 25.25359375 85.28414062 26 86 C26 90 26 90 24.5234375 91.89453125 C9.19901203 105.57506381 -8.07615079 108.73842063 -28 108 C-42.48089339 107.12134603 -54.04293996 100.26994362 -64 90 C-64.58394531 89.42507813 -65.16789062 88.85015625 -65.76953125 88.2578125 C-70.24054871 83.52645731 -72.63489098 78.00502857 -75 72 C-75.48339844 70.86304688 -75.48339844 70.86304688 -75.9765625 69.703125 C-80.62881001 57.09422989 -78.96360388 41.33997746 -73.81640625 29.2109375 C-66.62047309 14.73753087 -54.71578326 4.79643036 -39.5 -0.4375 C-26.71834885 -4.35275853 -12.61990065 -4.67179014 0 0 Z " fill="#0F083A" transform="translate(408,806)"/>
<path d="M0 0 C7.61305236 -0.07656573 15.22600404 -0.128815 22.83935547 -0.16479492 C25.4250052 -0.17980712 28.01062978 -0.20022313 30.59619141 -0.22631836 C34.32981604 -0.26303545 38.06310166 -0.27980274 41.796875 -0.29296875 C42.93799744 -0.30845261 44.07911987 -0.32393646 45.25482178 -0.33988953 C57.50943566 -0.34241336 68.45388287 1.9698543 78 10 C86.20021014 19.18836496 87.31033966 27.45408099 87.30078125 39.36328125 C87.30506638 40.55044235 87.3093515 41.73760345 87.31376648 42.96073914 C87.31949549 45.46625126 87.32002061 47.97178002 87.31567383 50.47729492 C87.31251929 54.289192 87.33597356 58.10030841 87.36132812 61.91210938 C87.36360195 64.35416569 87.36430423 66.79622409 87.36328125 69.23828125 C87.372491 70.36776688 87.38170074 71.4972525 87.39118958 72.66096497 C87.33366115 82.61533632 85.70569266 91.16628857 79.23046875 98.953125 C72.55801116 105.07636103 64.07150509 108.0530978 55.12475586 108.19287109 C54.18284897 108.20893402 53.24094208 108.22499695 52.27049255 108.24154663 C47.96264747 108.28650629 43.65494942 108.32708171 39.34692383 108.35009766 C37.08640208 108.36660845 34.82593148 108.39383332 32.56567383 108.43212891 C5.4015 108.88920404 5.4015 108.88920404 -4.9375 99.75 C-12.8364935 90.88535937 -14.39594184 82.17697435 -14.2734375 70.5390625 C-13.59388426 61.74370205 -9.58086277 54.79373997 -3 49 C-0.11825512 47.02695864 2.80029785 45.39682429 6 44 C6.78189697 43.65324219 7.56379395 43.30648437 8.36938477 42.94921875 C13.71174532 41.55246683 18.90032551 41.75534491 24.3984375 41.8046875 C25.58853424 41.8075174 26.77863098 41.81034729 28.00479126 41.81326294 C31.79496437 41.82443183 35.58489866 41.84953083 39.375 41.875 C41.94921533 41.88503403 44.52343438 41.89415915 47.09765625 41.90234375 C53.39851858 41.92436043 59.69924222 41.9578055 66 42 C65.87376146 40.07368643 65.73777325 38.14801008 65.59765625 36.22265625 C65.52297119 35.15023682 65.44828613 34.07781738 65.37133789 32.97290039 C64.86962357 28.95621709 63.86564272 26.86564272 61 24 C54.5107353 20.93884457 49.00050453 20.59754208 41.89453125 20.6640625 C39.75585628 20.65155992 37.61718438 20.63852326 35.47851562 20.625 C32.13408669 20.62105929 28.78995753 20.62509807 25.44555664 20.63964844 C22.19892821 20.64820659 18.95354948 20.62657068 15.70703125 20.6015625 C14.20847343 20.62157822 14.20847343 20.62157822 12.67964172 20.64199829 C8.17132475 20.59396333 5.69517996 20.45231692 1.8503418 17.95068359 C-0.45364462 14.27658676 -0.57314766 11.37791235 -0.3125 7.1875 C-0.28994141 6.49462891 -0.26738281 5.80175781 -0.24414062 5.08789062 C-0.18562661 3.39098427 -0.0959548 1.69520139 0 0 Z " fill="#0D0739" transform="translate(782,805)"/>
<path d="M0 0 C6.81479112 -0.50931072 13.61083776 -0.7969413 20.4453125 -0.6640625 C21.57211426 -0.64553223 22.69891602 -0.62700195 23.85986328 -0.60791016 C27.7789276 0.15079535 29.52215902 1.63384964 32.3125 4.4375 C33.20416254 5.99488345 34.09199257 7.5556807 34.91503906 9.15039062 C37.17969891 13.01111588 40.28931002 16.29392476 43.1875 19.6875 C47.62468834 25.00783887 51.89304836 30.42033942 56 36 C59.47297969 32.61322902 62.66395175 29.11658138 65.75 25.375 C66.17901611 24.85647461 66.60803223 24.33794922 67.05004883 23.80371094 C70.62419722 19.47769778 74.16789396 15.12663969 77.69921875 10.765625 C78.45847656 9.85296875 79.21773437 8.9403125 80 8 C80.67035278 6.96552734 80.67035278 6.96552734 81.35424805 5.91015625 C83.88682625 2.36227046 85.63092951 0.29207432 89.99829102 -0.63964844 C93.51051026 -0.78710317 96.92814379 -0.69911241 100.4375 -0.5 C101.64599609 -0.46390625 102.85449219 -0.4278125 104.09960938 -0.390625 C107.06970002 -0.29670909 110.03318135 -0.1655129 113 0 C113 0.66 113 1.32 113 2 C112.34 2 111.68 2 111 2 C110.66548828 2.79857422 110.66548828 2.79857422 110.32421875 3.61328125 C108.54842024 6.81390925 106.20528481 9.44183256 103.8125 12.1875 C100.60410397 15.92031036 97.43069221 19.65273218 94.4375 23.5625 C91.74885128 27.07250203 88.96031877 30.4821992 86.125 33.875 C85.28453125 34.88304687 84.4440625 35.89109375 83.578125 36.9296875 C81.85436403 38.99059198 80.11259766 41.03443804 78.359375 43.0703125 C77.53953125 44.03710938 76.7196875 45.00390625 75.875 46 C75.12992188 46.86625 74.38484375 47.7325 73.6171875 48.625 C71.62477966 51.07216293 71.62477966 51.07216293 72 55 C73.12564461 56.91549255 73.12564461 56.91549255 74.74609375 58.72265625 C75.33173096 59.42052246 75.91736816 60.11838867 76.52075195 60.83740234 C77.15327881 61.57168457 77.78580566 62.3059668 78.4375 63.0625 C79.73189579 64.59755089 81.0261667 66.13270709 82.3203125 67.66796875 C82.95356445 68.41224121 83.58681641 69.15651367 84.23925781 69.92333984 C86.46421659 72.54750781 88.64167607 75.20589086 90.8125 77.875 C92.94400576 80.48717804 95.07915038 83.09550721 97.23046875 85.69140625 C101.2690467 90.57801606 105.22658511 95.5156842 109.0625 100.5625 C110.19365234 102.04943359 110.19365234 102.04943359 111.34765625 103.56640625 C113 106 113 106 113 108 C91.05743618 109.6179996 91.05743618 109.6179996 84.72265625 106.265625 C82.42953391 103.65223418 80.75221171 101.00217308 79 98 C77.27224454 95.67763639 75.44212738 93.44022511 73.625 91.1875 C72.70290437 90.00248538 71.78234193 88.81627623 70.86328125 87.62890625 C66.41629195 81.9417576 61.7026656 76.47583112 57 71 C53.42598904 74.49074547 50.08949061 78.11097792 46.875 81.9375 C46.40634521 82.49308594 45.93769043 83.04867187 45.45483398 83.62109375 C40.98528278 88.95449528 36.68188761 94.41390887 32.41015625 99.90625 C31.61480469 100.9271875 30.81945312 101.948125 30 103 C29.41565186 103.87873779 28.83130371 104.75747559 28.22924805 105.6628418 C26 108 26 108 23.15917969 108.56762695 C21.55671387 108.52835083 21.55671387 108.52835083 19.921875 108.48828125 C18.18164062 108.46411133 18.18164062 108.46411133 16.40625 108.43945312 C15.1996875 108.39755859 13.993125 108.35566406 12.75 108.3125 C11.52796875 108.28994141 10.3059375 108.26738281 9.046875 108.24414062 C6.03001498 108.18521758 3.01562485 108.10299265 0 108 C1.80345622 104.21608918 4.14500869 101.07613968 6.75 97.8125 C7.22953125 97.20664062 7.7090625 96.60078125 8.203125 95.9765625 C12.65803793 90.37382762 17.2185865 84.85893941 21.78369141 79.34594727 C26.51550936 73.62066932 31.13095535 67.81238598 35.6953125 61.953125 C37.77709245 59.28562391 39.88030114 56.63741333 42 54 C40.31401301 50.12882318 37.79405792 46.96945808 35.1875 43.6875 C34.70756592 43.07938477 34.22763184 42.47126953 33.7331543 41.84472656 C29.51546823 36.54945046 25.10343366 31.43561527 20.64306641 26.34448242 C16.87836839 22.04156701 13.25360955 17.65427968 9.72265625 13.15625 C8.03836448 11.04802085 6.28603357 9.02223755 4.5 7 C2 4 2 4 2 2 C1.34 2 0.68 2 0 2 C0 1.34 0 0.68 0 0 Z " fill="#0E083A" transform="translate(451,805)"/>
<path d="M0 0 C0.30292969 1.14855469 0.60585938 2.29710937 0.91796875 3.48046875 C3.43217545 12.86792226 6.05679256 22.09171734 10 31 C10.3815625 31.90363281 10.763125 32.80726563 11.15625 33.73828125 C16.28487624 44.0424419 27.74329036 48.6711896 38.1875 52.19921875 C42.53008689 53.43564974 46.92309214 54.39467974 51.34765625 55.2890625 C54 56 54 56 56 58 C55.625 60.125 55.625 60.125 55 62 C53.36804688 62.34611328 53.36804688 62.34611328 51.703125 62.69921875 C37.40532126 65.82844466 21.54559165 69.66756134 12.625 82.3125 C9.81081758 86.98166463 7.80802396 91.86912118 6 97 C5.60167969 98.09441406 5.60167969 98.09441406 5.1953125 99.2109375 C3.04074962 105.36365831 1.51174753 111.66352632 0 118 C-3.75 119.125 -3.75 119.125 -6 118 C-6.54329903 115.49246601 -6.98477284 113.03165544 -7.375 110.5 C-8.45575511 104.13438055 -10.0336291 98.76460742 -13 93 C-13.474375 91.824375 -13.94875 90.64875 -14.4375 89.4375 C-19.61882242 78.03859068 -26.55364168 73.05275532 -38.1875 68.3125 C-45.63386153 65.60310098 -53.28773378 63.77213819 -61 62 C-61.625 60.125 -61.625 60.125 -62 58 C-59.11273617 55.11273617 -55.60209474 54.7219981 -51.75 53.75 C-33.40869502 49.21469618 -33.40869502 49.21469618 -19.4296875 37.62890625 C-17.83274469 34.80015078 -16.40397716 31.92885234 -15 29 C-14.33484375 27.74896484 -14.33484375 27.74896484 -13.65625 26.47265625 C-10.31247 19.8564574 -8.73133325 13.16373707 -7.34326172 5.92944336 C-6.95208387 3.94099143 -6.48258362 1.96826681 -6 0 C-3.50907189 -1.24546405 -2.58919267 -0.7767578 0 0 Z " fill="#2363FB" transform="translate(738,345)"/>
<path d="M0 0 C7.24230847 4.84656385 12.62486303 12.31860346 14.8046875 20.75 C15.87738684 33.37292712 14.99843081 43.02111427 6.6796875 53.0625 C2.26680922 57.70111957 -2.28701532 60.40233224 -8.1953125 62.75 C-8.96101562 63.11351562 -9.72671875 63.47703125 -10.515625 63.8515625 C-18.76983103 66.61900767 -29.74983104 65.56748536 -37.66015625 62.21484375 C-46.12392894 57.32437417 -53.43250415 49.75131648 -56.64453125 40.40234375 C-58.73999386 30.31142808 -58.36708737 20.39757332 -53.0859375 11.40234375 C-40.28056448 -6.56221881 -19.22474992 -10.94647682 0 0 Z " fill="#FBFBFB" transform="translate(646.1953125,829.25)"/>
<path d="M0 0 C6.75237698 5.61043087 11.64491205 12.31818282 13.28125 21.08203125 C14.36150044 33.22459318 12.70282277 41.61353815 5.3671875 51.71875 C-0.88176965 58.798561 -10.44732226 62.40831023 -19.6640625 63.3984375 C-29.99953116 63.80815557 -38.76269658 60.46384634 -46.4609375 53.5078125 C-53.24205391 46.56662682 -56.90371928 37.6469863 -57.28125 27.95703125 C-56.7697019 17.47720811 -52.52666892 8.48474653 -44.87109375 1.36328125 C-32.35649076 -8.78772873 -13.1702846 -9.29110595 0 0 Z " fill="#FCFBFD" transform="translate(1004.71875,830.91796875)"/>
<path d="M0 0 C1.24716797 0.00322266 2.49433594 0.00644531 3.77929688 0.00976562 C5.07287109 0.01814453 6.36644531 0.02652344 7.69921875 0.03515625 C9.66858398 0.04192383 9.66858398 0.04192383 11.67773438 0.04882812 C14.91410885 0.06059676 18.15039053 0.07703865 21.38671875 0.09765625 C21.52198491 2.68274295 21.62089528 5.26074377 21.69921875 7.84765625 C21.74111328 8.57726562 21.78300781 9.306875 21.82617188 10.05859375 C21.90834544 13.67423041 21.70078353 15.68937203 19.47265625 18.5859375 C15.16460244 20.69633854 11.43110838 20.56138624 6.69921875 20.53515625 C-2.55435848 20.73864155 -9.20563729 21.91039449 -16.11328125 28.47265625 C-19.18387109 33.84618847 -19.86585893 39.21023231 -19.93212891 45.31811523 C-19.94217453 46.00188736 -19.95222015 46.68565948 -19.96257019 47.39015198 C-19.99318034 49.62467698 -20.01037469 51.85908344 -20.02734375 54.09375 C-20.04607332 55.65317286 -20.06564804 57.21258577 -20.08602905 58.77198792 C-20.13716753 62.85714838 -20.17689055 66.94234164 -20.21417236 71.02764893 C-20.25432724 75.20406077 -20.30536696 79.38033836 -20.35546875 83.55664062 C-20.45201136 91.73689383 -20.5354776 99.91720333 -20.61328125 108.09765625 C-27.54328125 108.09765625 -34.47328125 108.09765625 -41.61328125 108.09765625 C-41.72670918 98.26537398 -41.81824157 88.43353358 -41.87234211 78.60074234 C-41.89832125 74.03387186 -41.93350256 69.4674762 -41.99047852 64.90087891 C-42.04521934 60.48527174 -42.07478941 56.07011827 -42.08766747 51.65419769 C-42.09683253 49.97822691 -42.11472789 48.30227804 -42.14193153 46.62650299 C-42.35615436 32.87005997 -40.42770649 21.80898294 -30.484375 11.4296875 C-21.68784176 4.28474825 -11.34337745 -0.05179624 0 0 Z " fill="#0E083A" transform="translate(740.61328125,804.90234375)"/>
<path d="M0 0 C15 0 15 0 18.89492798 1.87358093 C21.88209912 6.3100794 21.8008126 9.77985957 21.68115234 15.02270508 C21.6820285 16.02805298 21.68290466 17.03340088 21.68380737 18.06921387 C21.67963268 21.38678123 21.63298355 24.70231785 21.5859375 28.01953125 C21.57474501 30.3216593 21.56620508 32.62380165 21.56021118 34.9259491 C21.53731745 40.98110507 21.47838787 47.0353956 21.4119873 53.09020996 C21.35057749 59.27030734 21.32319884 65.45054475 21.29296875 71.63085938 C21.22864619 83.75434741 21.12311494 95.87696629 21 108 C14.07 108 7.14 108 0 108 C0 72.36 0 36.72 0 0 Z " fill="#236FFC" transform="translate(1057,805)"/>
<path d="M0 0 C0.98071472 0.00015106 1.96142944 0.00030212 2.97186279 0.00045776 C4.54861786 0.01594162 4.54861786 0.01594162 6.15722656 0.03173828 C7.78014618 0.03598312 7.78014618 0.03598312 9.43585205 0.04031372 C12.8899646 0.05150469 16.34381744 0.07660758 19.79785156 0.10205078 C22.14029573 0.11208197 24.48274397 0.12120758 26.82519531 0.12939453 C32.56616927 0.15144049 38.30699186 0.18490744 44.04785156 0.22705078 C44.12923582 3.10262782 44.18853007 5.9758734 44.23535156 8.85205078 C44.26048828 9.66029297 44.285625 10.46853516 44.31152344 11.30126953 C44.37342234 16.37697951 43.9013227 19.84178753 41.04785156 24.22705078 C35.69176372 28.11021446 30.86477887 28.40731886 24.43457031 28.46533203 C23.58739944 28.47340378 22.74022858 28.48147552 21.86738586 28.48979187 C20.0744531 28.50361768 18.28149419 28.51434656 16.48852539 28.5222168 C13.7558365 28.53942181 11.0243603 28.58331927 8.29199219 28.62744141 C6.54786044 28.63756965 4.80371842 28.64608534 3.05957031 28.65283203 C2.2468718 28.67034012 1.43417328 28.68784821 0.59684753 28.70588684 C-4.73482472 28.68564717 -7.70289351 27.73133548 -11.95214844 24.22705078 C-15.28477691 20.45007185 -15.57866357 16.60942646 -15.44042969 11.73486328 C-14.62123251 7.52746657 -12.23005147 4.87343121 -8.95214844 2.22705078 C-5.85170191 0.377851 -3.5926491 -0.01851881 0 0 Z " fill="#F5F5F7" transform="translate(803.9521484375,865.77294921875)"/>
<path d="M0 0 C5.73304355 4.63191619 9.18780453 10.06402267 10.625 17.25 C-12.475 17.25 -35.575 17.25 -59.375 17.25 C-57.73472822 9.04864111 -53.38658393 3.26445444 -46.5234375 -1.46875 C-31.21182108 -10.60004124 -14.79560321 -10.03186733 0 0 Z " fill="#F8F8F9" transform="translate(412.375,830.75)"/>
<path d="M0 0 C3.85350036 1.961782 7.04156444 4.08312888 9 8 C9.54792971 13.66194033 9.09175197 17.07609871 6 22 C3.58354573 24.91988224 1.51998455 25.84284905 -2.3046875 26.23828125 C-6.47949003 26.35883026 -9.22471048 26.42888356 -12.9375 24.375 C-16.52359062 20.24556232 -18.31537953 17.01914175 -18 11.5 C-17.27982992 6.70965522 -15.43141144 4.34771848 -12 1 C-8.29018719 -0.85490641 -4.04876607 -0.4540091 0 0 Z " fill="#0989FB" transform="translate(1072,765)"/>
<path d="M0 0 C0.99 0 1.98 0 3 0 C3.23074219 0.67546875 3.46148438 1.3509375 3.69921875 2.046875 C6.28028321 9.21247217 6.28028321 9.21247217 12 14 C14.64329595 15.12721559 17.27346586 16.07575114 20 17 C20 17.99 20 18.98 20 20 C18.783125 20.4125 17.56625 20.825 16.3125 21.25 C11.55636352 23.08702626 8.11698339 24.6744772 5.80859375 29.48046875 C4.80170139 31.9678788 3.86735465 34.46092828 3 37 C2.01 37 1.02 37 0 37 C-0.14695312 36.40832031 -0.29390625 35.81664062 -0.4453125 35.20703125 C-2.08673433 29.42432102 -3.76515243 26.3582041 -9 23 C-11.64284206 21.82381624 -14.24333631 20.903045 -17 20 C-17 19.01 -17 18.02 -17 17 C-16.32453125 16.76925781 -15.6490625 16.53851563 -14.953125 16.30078125 C-7.78752783 13.71971679 -7.78752783 13.71971679 -3 8 C-1.87278441 5.35670405 -0.92424886 2.72653414 0 0 Z " fill="#6D22F3" transform="translate(836,320)"/>
<path d="M0 0 C0.99 0.33 1.98 0.66 3 1 C3.88671875 3.109375 3.88671875 3.109375 4.6875 5.75 C6.50174443 10.64635851 8.47341386 12.67583847 13 15.16015625 C14.98435502 15.99343033 16.89913648 16.54512553 19 17 C19 17.99 19 18.98 19 20 C18.25234375 20.20753906 17.5046875 20.41507812 16.734375 20.62890625 C10.01678645 22.54137915 10.01678645 22.54137915 5.4375 27.4375 C4.963125 28.613125 4.48875 29.78875 4 31 C3.5875 31.969375 3.175 32.93875 2.75 33.9375 C2.5025 34.618125 2.255 35.29875 2 36 C0.515 35.505 0.515 35.505 -1 35 C-1.74609375 32.890625 -1.74609375 32.890625 -2.4375 30.25 C-3.75831718 26.57697056 -4.53996159 25.27884838 -7.92578125 23.2265625 C-10.9237871 22.0076318 -13.89982458 20.92615303 -17 20 C-17 19.01 -17 18.02 -17 17 C-16.32453125 16.76925781 -15.6490625 16.53851563 -14.953125 16.30078125 C-7.78752783 13.71971679 -7.78752783 13.71971679 -3 8 C-1.87278441 5.35670405 -0.92424886 2.72653414 0 0 Z " fill="#1C6AFC" transform="translate(809,359)"/>
<path d="M0 0 C2.5647293 1.50012468 4.89183465 2.89183465 7 5 C7.44166754 8.05381556 7.48223087 10.95105642 7 14 C4.5625 17 4.5625 17 2 19 C1.67 19.33 1.34 19.66 1 20 C-1.95224072 20.41194057 -4.09957373 20.5560236 -6.6953125 18.953125 C-10.28625221 16.00404408 -11.81847354 14.34848226 -12.4375 9.75 C-11.92721067 5.3760915 -10.93833699 3.93133732 -7.7109375 1.10546875 C-4.93406413 -0.68872112 -3.20118768 -0.6669141 0 0 Z " fill="#226AFB" transform="translate(768,319)"/>
<path d="M0 0 C3.47924392 0.8645394 4.91967516 2.61216046 6.93359375 5.48046875 C8.30994823 9.93338031 8.34378528 11.68938508 6.18359375 15.85546875 C3.3606427 19.14891164 1.81259635 19.38280179 -2.44140625 19.85546875 C-6.06640625 19.48046875 -6.06640625 19.48046875 -9.00390625 17.54296875 C-11.41217214 13.96705879 -11.81160317 11.87515177 -11.54296875 7.640625 C-10.19376901 1.52499012 -5.72845016 -0.40066665 0 0 Z " fill="#731FF2" transform="translate(852.06640625,285.51953125)"/>
<path d="M0 0 C2.9375 2.125 2.9375 2.125 5 5 C5.57167363 9.00171543 5.36938628 11.22764686 3.625 14.875 C2 17 2 17 0 18 C-4.4131016 18.51968957 -7.86159151 18.85380637 -11.5 16.125 C-14.02095756 12.55364345 -14.50754559 10.39872846 -14 6 C-10.15604442 -0.21057003 -7.1080184 -1.68664843 0 0 Z " fill="#761EF1" transform="translate(878,362)"/>
<path d="M0 0 C0.33 0 0.66 0 1 0 C1 56.43 1 112.86 1 171 C2.32 171.33 3.64 171.66 5 172 C5 172.33 5 172.66 5 173 C3.02 173 1.04 173 -1 173 C-1.02335273 151.18187627 -1.04099087 129.3637546 -1.05181217 107.54562092 C-1.05697007 97.4152567 -1.06400317 87.28490025 -1.07543945 77.15454102 C-1.08540171 68.32568694 -1.09185711 59.49683848 -1.09408849 50.66797894 C-1.09539297 45.99250066 -1.09846228 41.31703846 -1.10573006 36.64156532 C-1.11251456 32.24136452 -1.11461199 27.84118644 -1.11310768 23.44098091 C-1.11338291 21.82568488 -1.11537363 20.2103881 -1.11920547 18.59509659 C-1.12418065 16.38977055 -1.12298415 14.18453029 -1.12025452 11.97920227 C-1.12117631 10.74492146 -1.1220981 9.51064066 -1.12304783 8.23895741 C-1.01375793 5.36214668 -0.66658762 2.7933967 0 0 Z " fill="#780FEC" transform="translate(400,550)"/>
<path d="M0 0 C7.79621449 -0.04931912 15.59233881 -0.08568111 23.38867188 -0.10986328 C26.04265931 -0.11994089 28.6966356 -0.13360313 31.35058594 -0.15087891 C35.15823107 -0.17504992 38.96572984 -0.18646535 42.7734375 -0.1953125 C44.56254044 -0.21079636 44.56254044 -0.21079636 46.38778687 -0.22659302 C47.48877716 -0.22674408 48.58976746 -0.22689514 49.72412109 -0.22705078 C51.1830629 -0.23371262 51.1830629 -0.23371262 52.67147827 -0.24050903 C55 0 55 0 57 2 C38.85 2 20.7 2 2 2 C2 6.62 2 11.24 2 16 C1.34 15.67 0.68 15.34 0 15 C0 10.05 0 5.1 0 0 Z " fill="#353356" transform="translate(782,805)"/>
<path d="M0 0 C0.33 0 0.66 0 1 0 C1.14336162 6.29880694 1.2856665 12.59763713 1.42724609 18.89648438 C1.47550675 21.0380914 1.52400691 23.17969305 1.57275391 25.32128906 C1.64288701 28.40428293 1.71215119 31.4872953 1.78125 34.5703125 C1.80312378 35.52366486 1.82499756 36.47701721 1.84753418 37.45925903 C1.86755493 38.35973969 1.88757568 39.26022034 1.90820312 40.18798828 C1.92596802 40.97408478 1.94373291 41.76018127 1.96203613 42.57009888 C2.0059331 45.37975152 2 48.19000446 2 51 C7.94 51 13.88 51 20 51 C20 47.7 20 44.4 20 41 C20.33 41 20.66 41 21 41 C21 45.29 21 49.58 21 54 C14.07 54 7.14 54 0 54 C0 36.18 0 18.36 0 0 Z " fill="#5664FA" transform="translate(1057,859)"/>
<path d="M0 0 C0.33 0 0.66 0 1 0 C1.62396567 15.2904779 2.08171319 30.53511987 1.97827148 45.83984375 C1.9463141 53.32368263 2.19090594 60.75276815 2.73242188 68.21728516 C2.96859054 71.68345392 3.14085804 74.68834265 2 78 C1.814375 78.7425 1.62875 79.485 1.4375 80.25 C1.293125 80.8275 1.14875 81.405 1 82 C0.67 82 0.34 82 0 82 C0 54.94 0 27.88 0 0 Z " fill="#0348E5" transform="translate(747,497)"/>
<path d="M0 0 C0.60457031 0.20109375 1.20914063 0.4021875 1.83203125 0.609375 C-16.00275811 13.89856587 -36.88651835 26.3130273 -60.16796875 23.609375 C-59.67296875 22.124375 -59.67296875 22.124375 -59.16796875 20.609375 C-58.29914063 20.63257813 -57.4303125 20.65578125 -56.53515625 20.6796875 C-54.80652344 20.70675781 -54.80652344 20.70675781 -53.04296875 20.734375 C-51.90601563 20.75757813 -50.7690625 20.78078125 -49.59765625 20.8046875 C-46.07341522 20.6039904 -43.46616863 19.81797711 -40.16796875 18.609375 C-38.35823835 18.2010661 -36.54559258 17.80549692 -34.73046875 17.421875 C-28.77508888 15.98720382 -23.53316901 13.64604342 -18.06860352 10.9465332 C-13.33480947 8.609375 -13.33480947 8.609375 -11.16796875 8.609375 C-11.16796875 7.949375 -11.16796875 7.289375 -11.16796875 6.609375 C-10.17796875 6.609375 -9.18796875 6.609375 -8.16796875 6.609375 C-7.83796875 5.619375 -7.50796875 4.629375 -7.16796875 3.609375 C-2.91796875 -0.52576014 -2.91796875 -0.52576014 0 0 Z " fill="#8122F3" transform="translate(497.16796875,699.390625)"/>
<path d="M0 0 C0.66 0.33 1.32 0.66 2 1 C2 1.66 2 2.32 2 3 C2.66 3 3.32 3 4 3 C4 3.66 4 4.32 4 5 C4.99 5 5.98 5 7 5 C7 5.66 7 6.32 7 7 C7.58394531 7.13535156 8.16789063 7.27070312 8.76953125 7.41015625 C11 8 11 8 14.6875 9.4375 C22.63161548 12.43168731 29.91743584 13.25208835 38.375 13 C40.13256595 12.94898212 41.89042092 12.90691558 43.6484375 12.875 C44.41333496 12.85179687 45.17823242 12.82859375 45.96630859 12.8046875 C48 13 48 13 51 15 C34.54369036 18.19339968 18.19309613 16.1360602 4 7 C0.8125 4.625 0.8125 4.625 -1 3 C-0.67 2.01 -0.34 1.02 0 0 Z " fill="#9229F0" transform="translate(946,898)"/>
<path d="M0 0 C2.14809171 3.22213757 2.29386153 4.27775401 2 8 C1.67 8.33 1.34 8.66 1 9 C0.87198037 11.55443814 0.81477724 14.06994129 0.8125 16.625 C0.80025391 17.32496094 0.78800781 18.02492188 0.77539062 18.74609375 C0.74744608 28.78749945 4.70142157 38.5704434 10 47 C10.69822617 48.65369357 11.37498605 50.31727014 12 52 C4.17054003 45.3219312 -0.57793471 35.09785858 -2 25 C-2.21604024 21.7280242 -2.29061737 18.46614276 -2.3125 15.1875 C-2.31813965 14.37474609 -2.3237793 13.56199219 -2.32958984 12.72460938 C-2.27339853 8.10358795 -1.75630327 4.34527622 0 0 Z " fill="#993BF3" transform="translate(929,843)"/>
<path d="M0 0 C0 0.33 0 0.66 0 1 C-1.60681641 1.09087891 -1.60681641 1.09087891 -3.24609375 1.18359375 C-4.64324391 1.26798537 -6.04037857 1.35263406 -7.4375 1.4375 C-8.49807617 1.49647461 -8.49807617 1.49647461 -9.58007812 1.55664062 C-13.08690419 1.47624438 -13.08690419 1.47624438 -16 3 C-17.65285932 3.27654017 -19.30660516 3.5485642 -20.96386719 3.79736328 C-36.1144515 6.16265925 -48.27971821 12.21090101 -60 22 C-60.66 21.67 -61.32 21.34 -62 21 C-52.17439056 11.23541919 -40.38058244 5.23449194 -27 2 C-26.11054688 1.77570313 -25.22109375 1.55140625 -24.3046875 1.3203125 C-16.25464509 -0.43387585 -8.19000867 -0.18496883 0 0 Z M-64 22 C-63.34 22.33 -62.68 22.66 -62 23 C-63.32 23.99 -64.64 24.98 -66 26 C-65.34 24.68 -64.68 23.36 -64 22 Z " fill="#B083FA" transform="translate(490,333)"/>
<path d="M0 0 C0.9839173 3.07613552 0.99017266 4.91110489 0.0390625 7.984375 C-0.18499268 8.74741943 -0.40904785 9.51046387 -0.63989258 10.29663086 C-1.00377075 11.51104858 -1.00377075 11.51104858 -1.375 12.75 C-4.25836228 22.93055473 -5 32.42720534 -5 43 C-1.11791518 41.54421819 2.42621789 39.72946602 6.03515625 37.70703125 C8.42200179 36.84814647 9.64282126 37.17577492 12 38 C11.3709375 38.20753906 10.741875 38.41507812 10.09375 38.62890625 C4.1915055 40.75335871 0.02859553 43.26838738 -4.50390625 47.609375 C-6 49 -6 49 -7 49 C-7.57985017 31.33910189 -6.40082385 16.57978442 0 0 Z " fill="#A071F8" transform="translate(406,384)"/>
<path d="M0 0 C1.20398438 0.04060547 2.40796875 0.08121094 3.6484375 0.12304688 C6.60318406 0.22857354 9.54944217 0.37601811 12.5 0.5625 C12.5 1.2225 12.5 1.8825 12.5 2.5625 C11.84 2.5625 11.18 2.5625 10.5 2.5625 C10.17 3.2225 9.84 3.8825 9.5 4.5625 C8.8702124 4.5310791 8.2404248 4.4996582 7.59155273 4.46728516 C4.70724156 4.34170754 1.82350629 4.26426521 -1.0625 4.1875 C-2.05314453 4.13722656 -3.04378906 4.08695313 -4.06445312 4.03515625 C-9.32237535 3.93034717 -12.62312362 4.07874882 -16.71484375 7.5859375 C-17.66951802 8.5528566 -18.60869499 9.53687292 -19.5 10.5625 C-20.16 10.2325 -20.82 9.9025 -21.5 9.5625 C-15.53479838 0.44684063 -10.55920498 -0.67880603 0 0 Z " fill="#2B2850" transform="translate(551.5,804.4375)"/>
<path d="M0 0 C3.84849835 1.56790673 6.08938167 4.08938167 9 7 C10.75113557 8.31818373 12.53438759 9.56390837 14.3515625 10.7890625 C16.08008092 12.05882721 17.4855332 13.4855332 19 15 C19.99 15.66 20.98 16.32 22 17 C22 17.66 22 18.32 22 19 C22.81210937 19.14115234 22.81210937 19.14115234 23.640625 19.28515625 C26.69771088 20.21139253 29.05769005 21.7245356 31.75 23.4375 C32.73484375 24.05496094 33.7196875 24.67242188 34.734375 25.30859375 C35.48203125 25.86675781 36.2296875 26.42492187 37 27 C37 27.66 37 28.32 37 29 C37.99 29.33 38.98 29.66 40 30 C28.47709953 30 15.79891923 15.72643128 7.5 8.1875 C6.98308594 7.71916748 6.46617187 7.25083496 5.93359375 6.76831055 C3.59457722 4.61212714 1.77589879 2.66384818 0 0 Z " fill="#3172FB" transform="translate(680,678)"/>
<path d="M0 0 C3.85645121 -0.22036864 6.49223216 0.39644899 10 2 C10 2.66 10 3.32 10 4 C11.216875 4.12375 12.43375 4.2475 13.6875 4.375 C17.10739045 4.72278547 19.82938207 5.68735452 23 7 C30.38399738 9.40886523 30.38399738 9.40886523 38.0625 10.0625 C39.031875 10.041875 40.00125 10.02125 41 10 C41.66 10.66 42.32 11.32 43 12 C30.31703815 12.8647474 18.09434979 10.25317897 7 4 C4.68462832 2.95161398 2.34648445 1.97770185 0 1 C0 0.67 0 0.34 0 0 Z " fill="#1F80FB" transform="translate(721,710)"/>
<path d="M0 0 C0.66 0.66 1.32 1.32 2 2 C0.8737793 3.97558594 0.8737793 3.97558594 -1 6 C-3.72729492 6.45410156 -3.72729492 6.45410156 -6.98046875 6.390625 C-8.14384766 6.37773438 -9.30722656 6.36484375 -10.50585938 6.3515625 C-11.72080078 6.31804688 -12.93574219 6.28453125 -14.1875 6.25 C-15.41404297 6.23195313 -16.64058594 6.21390625 -17.90429688 6.1953125 C-20.93697759 6.14811124 -23.96810087 6.08227677 -27 6 C-26.34 4.68 -25.68 3.36 -25 2 C-17.08 2.33 -9.16 2.66 -1 3 C-0.67 2.01 -0.34 1.02 0 0 Z " fill="#1F1B44" transform="translate(478,907)"/>
<path d="M0 0 C0.66 0.66 1.32 1.32 2 2 C-11.1610971 10.37794443 -25.01021194 17.43411189 -41 17 C-41 16.34 -41 15.68 -41 15 C-36.27616037 14.34843591 -31.78025483 13.88049363 -27 14 C-26.67 13.34 -26.34 12.68 -26 12 C-23.953125 11.39453125 -23.953125 11.39453125 -21.25 10.8125 C-13.79317291 8.91653086 -5.51138212 5.51138212 0 0 Z " fill="#1895FC" transform="translate(819,706)"/>
<path d="M0 0 C1.5 1.375 1.5 1.375 3 3 C3 3.66 3 4.32 3 5 C-1.12486838 5.08676908 -5.24950384 5.14031295 -9.375 5.1875 C-10.550625 5.21263672 -11.72625 5.23777344 -12.9375 5.26367188 C-14.05898438 5.27333984 -15.18046875 5.28300781 -16.3359375 5.29296875 C-17.37282715 5.3086792 -18.4097168 5.32438965 -19.47802734 5.34057617 C-20.31027832 5.22818604 -21.1425293 5.1157959 -22 5 C-22.66 4.01 -23.32 3.02 -24 2 C-21.45017567 0.72508784 -19.83534576 0.97403384 -16.9921875 1.12109375 C-16.00605469 1.16943359 -15.01992188 1.21777344 -14.00390625 1.26757812 C-12.97136719 1.32365234 -11.93882812 1.37972656 -10.875 1.4375 C-9.83472656 1.48970703 -8.79445313 1.54191406 -7.72265625 1.59570312 C-5.14814884 1.72560946 -2.57400704 1.86058252 0 2 C0 1.34 0 0.68 0 0 Z " fill="#1E1B41" transform="translate(561,908)"/>
<path d="M0 0 C0 0.99 0 1.98 0 3 C-1.94140625 4.578125 -1.94140625 4.578125 -4.5625 6.25 C-10.31811811 10.10340674 -15.1439135 14.21587025 -19 20 C-19.66 20 -20.32 20 -21 20 C-21 20.66 -21 21.32 -21 22 C-21.66 22 -22.32 22 -23 22 C-20.38989305 14.11262762 -9.27592185 0 0 0 Z " fill="#19153F" transform="translate(360,810)"/>
<path d="M0 0 C0.33 0 0.66 0 1 0 C1 10.23 1 20.46 1 31 C7.27 31 13.54 31 20 31 C20 31.66 20 32.32 20 33 C13.07 33 6.14 33 -1 33 C-0.67 22.11 -0.34 11.22 0 0 Z " fill="#17143B" transform="translate(700,880)"/>
<path d="M0 0 C1.18975795 3.56927385 1.12478155 6.79946972 1.09765625 10.51171875 C1.0962413 11.23994339 1.09482635 11.96816803 1.09336853 12.71846008 C1.08777659 15.04151539 1.07522562 17.36447388 1.0625 19.6875 C1.05748396 21.26367048 1.05292123 22.83984248 1.04882812 24.41601562 C1.0378098 28.27738098 1.02055074 32.13867408 1 36 C2.32 36.33 3.64 36.66 5 37 C5 37.33 5 37.66 5 38 C3.02 38 1.04 38 -1 38 C-1.02464928 32.74894558 -1.04283568 27.49792455 -1.05493164 22.24682617 C-1.05997218 20.45905979 -1.06680454 18.67129755 -1.07543945 16.88354492 C-1.0875173 14.31948832 -1.09323094 11.75548603 -1.09765625 9.19140625 C-1.10281754 8.3872377 -1.10797882 7.58306915 -1.11329651 6.75453186 C-1.11349215 4.83598285 -1.06201983 2.91754632 -1 1 C-0.67 0.67 -0.34 0.34 0 0 Z " fill="#8E19F1" transform="translate(400,685)"/>
<path d="M0 0 C0.33 1.32 0.66 2.64 1 4 C-7.85059837 11.61065947 -16.88954368 14.87961652 -28 18 C-28.66 17.34 -29.32 16.68 -30 16 C-29.44054687 15.86464844 -28.88109375 15.72929687 -28.3046875 15.58984375 C-18.24048551 12.88771878 -8.13300554 8.76964902 -1 1 C-0.67 0.67 -0.34 0.34 0 0 Z " fill="#4661FA" transform="translate(719,382)"/>
<path d="M0 0 C0.33 0 0.66 0 1 0 C1.21876141 7.20776089 1.41373987 14.41588128 1.59204102 21.62475586 C1.65554515 24.07802958 1.72453246 26.53116765 1.79907227 28.98413086 C1.90515249 32.50613654 1.9916286 36.0281563 2.07421875 39.55078125 C2.11157639 40.65086014 2.14893402 41.75093903 2.18742371 42.88435364 C2.20767105 43.90518539 2.2279184 44.92601715 2.2487793 45.9777832 C2.27320602 46.87713089 2.29763275 47.77647858 2.32279968 48.70307922 C2 51 2 51 -1 54 C-0.67 36.18 -0.34 18.36 0 0 Z " fill="#D6D3DE" transform="translate(869,837)"/>
<path d="M0 0 C6.02240839 4.47820111 10.36927839 10.14003229 15 16 C15.77085937 16.8765625 16.54171875 17.753125 17.3359375 18.65625 C18.15964844 19.81640625 18.15964844 19.81640625 19 21 C18.67 21.99 18.34 22.98 18 24 C18 23.34 18 22.68 18 22 C17.01 21.67 16.02 21.34 15 21 C14.29848848 19.6846659 13.63474075 18.34882408 13 17 C12.00289434 15.99711402 11.00236685 14.99762753 10 14 C8.23587594 11.77744926 6.52808747 9.51700156 4.81640625 7.25390625 C3.00551979 5.00684929 1.07538688 3.00240624 -1 1 C-0.67 0.67 -0.34 0.34 0 0 Z " fill="#2E70FC" transform="translate(725,554)"/>
<path d="M0 0 C6.2059772 4.88555652 11.49381304 10.49106328 16 17 C16 17.99 16 18.98 16 20 C6.04210526 12.12631579 6.04210526 12.12631579 4 6 C3.319375 5.505 2.63875 5.01 1.9375 4.5 C1.298125 4.005 0.65875 3.51 0 3 C0 2.01 0 1.02 0 0 Z " fill="#3769FC" transform="translate(707,533)"/>
<path d="M0 0 C0.91974609 -0.01224609 1.83949219 -0.02449219 2.78710938 -0.03710938 C3.67076172 -0.03904297 4.55441406 -0.04097656 5.46484375 -0.04296875 C6.27429443 -0.04707764 7.08374512 -0.05118652 7.91772461 -0.05541992 C10.0625 0.1875 10.0625 0.1875 13.0625 2.1875 C8.10221813 3.17481725 3.3467038 3.3706825 -1.6875 3.375 C-2.45449219 3.38724609 -3.22148438 3.39949219 -4.01171875 3.41210938 C-5.98839071 3.41732029 -7.96463827 3.31028359 -9.9375 3.1875 C-10.5975 2.5275 -11.2575 1.8675 -11.9375 1.1875 C-8.29852049 -0.63198976 -4.00590712 0.00279547 0 0 Z " fill="#882EF9" transform="translate(983.9375,910.8125)"/>
<path d="M0 0 C0.70125 0.721875 1.4025 1.44375 2.125 2.1875 C8.42940078 8.45638303 14.49051367 12.36611137 23 15 C23 15.33 23 15.66 23 16 C14.18081363 15.85775506 8.38662447 12.5243212 2.2578125 6.203125 C1.11540911 4.84773115 0.04674922 3.43055726 -1 2 C-0.67 1.34 -0.34 0.68 0 0 Z " fill="#8C36F6" transform="translate(953,878)"/>
<path d="M0 0 C1.19882812 -0.01417969 2.39765625 -0.02835938 3.6328125 -0.04296875 C6.75818308 0.17919615 8.20287405 0.72222257 10.875 2.1875 C10.30990723 2.21255615 9.74481445 2.2376123 9.16259766 2.26342773 C6.60816258 2.37929956 4.0541045 2.50206537 1.5 2.625 C0.61054687 2.66431641 -0.27890625 2.70363281 -1.1953125 2.74414062 C-2.04609375 2.78603516 -2.896875 2.82792969 -3.7734375 2.87109375 C-4.55895996 2.90775146 -5.34448242 2.94440918 -6.15380859 2.98217773 C-8.20023496 3.078391 -8.20023496 3.078391 -10.125 4.1875 C-12.4650417 3.90508117 -14.80004723 3.57499213 -17.125 3.1875 C-11.76943907 0.09775331 -6.06233513 0.03273399 0 0 Z " fill="#292550" transform="translate(624.125,802.8125)"/>
<path d="M0 0 C-3.3171411 1.4216319 -6.44219804 2.39009109 -10 3 C-10 3.66 -10 4.32 -10 5 C-5.38 6.32 -0.76 7.64 4 9 C-0.33066959 10.0826674 -2.03729855 9.70725583 -6.25 8.5625 C-7.32765625 8.27503906 -8.4053125 7.98757813 -9.515625 7.69140625 C-10.33546875 7.46324219 -11.1553125 7.23507812 -12 7 C-12.625 5.125 -12.625 5.125 -13 3 C-9.54666565 -0.45333435 -4.63654999 -1.85462 0 0 Z " fill="#6B50F5" transform="translate(689,400)"/>
<path d="M0 0 C0.33 3.63 0.66 7.26 1 11 C-1 7 -1 7 -1 5 C-4.27773504 5.75150023 -4.27773504 5.75150023 -6 9 C-6 6.03 -6 3.06 -6 0 C-4 -1 -4 -1 0 0 Z " fill="#3854F9" transform="translate(738,345)"/>
<path d="M0 0 C3.85645121 -0.22036864 6.49223216 0.39644899 10 2 C10 2.66 10 3.32 10 4 C11.918125 4.185625 11.918125 4.185625 13.875 4.375 C17.75 4.75 17.75 4.75 20 7 C17.46688934 7.9499165 15.69236381 8.26651661 13.1328125 7.28125 C11.76908333 6.58081323 10.41503244 5.86127251 9.0703125 5.125 C6.13142183 3.5280179 3.08581571 2.28575655 0 1 C0 0.67 0 0.34 0 0 Z " fill="#3985FB" transform="translate(721,710)"/>
<path d="M0 0 C4.21228561 1.56010578 6.34546845 4.4845393 9 8 C9.33 8.99 9.66 9.98 10 11 C11.62332967 12.38576923 13.28724465 13.72641268 15 15 C14.67 15.99 14.34 16.98 14 18 C10.50724423 14.59409784 7.28659317 11.0797227 4.1875 7.3125 C3.39730469 6.35988281 2.60710938 5.40726563 1.79296875 4.42578125 C0 2 0 2 0 0 Z " fill="#7050F8" transform="translate(546,523)"/>
<path d="M0 0 C0.99 0.66 1.98 1.32 3 2 C-4.12950371 3.90120099 -10.63740707 4.22424141 -18 4 C-17.67 3.01 -17.34 2.02 -17 1 C-16.10796875 1.01160156 -15.2159375 1.02320313 -14.296875 1.03515625 C-12.54117187 1.04869141 -12.54117187 1.04869141 -10.75 1.0625 C-9.00976562 1.07990234 -9.00976562 1.07990234 -7.234375 1.09765625 C-4.13244601 1.13444501 -4.13244601 1.13444501 -1.765625 0.37109375 C-1.18296875 0.24863281 -0.6003125 0.12617187 0 0 Z " fill="#9221F8" transform="translate(455,719)"/>
<path d="M0 0 C0.99 0 1.98 0 3 0 C2.32829194 3.8063457 1.27253436 7.35206816 0 11 C-0.66 11 -1.32 11 -2 11 C-2 15.62 -2 20.24 -2 25 C-2.33 25 -2.66 25 -3 25 C-3.32177688 16.06175331 -3.33530434 8.43752585 0 0 Z " fill="#3C395E" transform="translate(570,839)"/>
<path d="M0 0 C-4.62 3.3 -9.24 6.6 -14 10 C-14.66 9.67 -15.32 9.34 -16 9 C-4.43190921 -1.47730307 -4.43190921 -1.47730307 0 0 Z M-18 10 C-17.34 10.33 -16.68 10.66 -16 11 C-17.32 11.99 -18.64 12.98 -20 14 C-19.34 12.68 -18.68 11.36 -18 10 Z " fill="#A16CFA" transform="translate(444,345)"/>
<path d="M0 0 C-3.3 1.32 -6.6 2.64 -10 4 C-10 3.34 -10 2.68 -10 2 C-15.94 2 -21.88 2 -28 2 C-28 1.67 -28 1.34 -28 1 C-26.77023437 0.93941406 -25.54046875 0.87882813 -24.2734375 0.81640625 C-22.64061573 0.73194995 -21.00780373 0.64730453 -19.375 0.5625 C-18.56675781 0.52318359 -17.75851562 0.48386719 -16.92578125 0.44335938 C-13.43802713 0.25904717 -10.10778726 0.01931083 -6.6640625 -0.59765625 C-4 -1 -4 -1 0 0 Z " fill="#BAB7C8" transform="translate(645,913)"/>
<path d="M0 0 C8.49430869 0.34045325 15.973914 2.25658428 24 5 C20.08263419 6.1700097 17.02040985 5.69584017 13 5 C13 4.34 13 3.68 13 3 C12.22914063 3.03480469 11.45828125 3.06960938 10.6640625 3.10546875 C9.66117187 3.13253906 8.65828125 3.15960938 7.625 3.1875 C6.12839844 3.23970703 6.12839844 3.23970703 4.6015625 3.29296875 C3.74304688 3.19628906 2.88453125 3.09960938 2 3 C1.34 2.01 0.68 1.02 0 0 Z " fill="#9B65F9" transform="translate(491,334)"/>
<path d="M0 0 C4.15665105 1.59871194 7.1991075 4.61307461 10 8 C10.33 8.99 10.66 9.98 11 11 C11.66 11.33 12.32 11.66 13 12 C12.67 12.99 12.34 13.98 12 15 C10.36932995 13.25500253 8.74548753 11.50441212 7.125 9.75 C6.66480469 9.25886719 6.20460938 8.76773438 5.73046875 8.26171875 C3.33815688 5.66137976 1.35854595 3.27924885 0 0 Z " fill="#7652F8" transform="translate(530,505)"/>
<path d="M0 0 C0 0.66 0 1.32 0 2 C-6.1476821 4.7601838 -12.11707027 7.41714726 -19 7 C-18.67 6.34 -18.34 5.68 -18 5 C-15.41796875 4.21875 -15.41796875 4.21875 -12.1875 3.5 C-8.2381547 2.61488485 -3.89826119 0 0 0 Z " fill="#8B1EF6" transform="translate(475,713)"/>
<path d="M0 0 C0.66 0 1.32 0 2 0 C1.33298297 3.52448507 -0.10357831 6.18300138 -1.9375 9.25 C-2.46214844 10.14203125 -2.98679687 11.0340625 -3.52734375 11.953125 C-4.01332031 12.62859375 -4.49929688 13.3040625 -5 14 C-5.66 14 -6.32 14 -7 14 C-5.58163643 8.8423143 -3.32608425 4.20024742 0 0 Z " fill="#2084FA" transform="translate(760,461)"/>
<path d="M0 0 C0.33 0 0.66 0 1 0 C1 2.64 1 5.28 1 8 C0.01 8.495 0.01 8.495 -1 9 C-1.33 8.34 -1.66 7.68 -2 7 C-2.66 7.66 -3.32 8.32 -4 9 C-4.99 8.67 -5.98 8.34 -7 8 C-5.85760183 6.66372225 -4.71098945 5.33104612 -3.5625 4 C-2.92441406 3.2575 -2.28632812 2.515 -1.62890625 1.75 C-1.09136719 1.1725 -0.55382812 0.595 0 0 Z " fill="#0CA3FB" transform="translate(854,404)"/>
<path d="M0 0 C0.66 0 1.32 0 2 0 C0.83207458 6.48847457 -1.73732098 9.15852574 -7 13 C-7.66 12.67 -8.32 12.34 -9 12 C-8.51789062 11.46890625 -8.03578125 10.9378125 -7.5390625 10.390625 C-6.90742187 9.68421875 -6.27578125 8.9778125 -5.625 8.25 C-4.68527344 7.20585938 -4.68527344 7.20585938 -3.7265625 6.140625 C-2.12494817 4.15491312 -1.03479932 2.32045907 0 0 Z " fill="#29254F" transform="translate(658,873)"/>
<path d="M0 0 C0.66 0 1.32 0 2 0 C1.67 2.31 1.34 4.62 1 7 C-0.32 7.33 -1.64 7.66 -3 8 C-3.33 6.35 -3.66 4.7 -4 3 C-3.01 2.67 -2.02 2.34 -1 2 C-0.67 1.34 -0.34 0.68 0 0 Z " fill="#1C72FB" transform="translate(737,456)"/>
<path d="M0 0 C0.99 0.33 1.98 0.66 3 1 C3.33 2.98 3.66 4.96 4 7 C2.02 7.33 0.04 7.66 -2 8 C-1.47731534 5.23723823 -0.89130413 2.6739124 0 0 Z " fill="#326BFB" transform="translate(809,359)"/>
<path d="M0 0 C0.66 1.32 1.32 2.64 2 4 C1.67 4.33 1.34 4.66 1 5 C0.92741054 7.18639453 0.91626217 9.37500389 0.9375 11.5625 C0.94652344 12.76003906 0.95554687 13.95757813 0.96484375 15.19140625 C0.97644531 16.11824219 0.98804688 17.04507813 1 18 C0.34 18 -0.32 18 -1 18 C-1.02698422 15.56242587 -1.04683099 13.12515085 -1.0625 10.6875 C-1.07087891 9.99720703 -1.07925781 9.30691406 -1.08789062 8.59570312 C-1.10307906 5.4516975 -1.00193327 3.00579981 0 0 Z " fill="#801AF7" transform="translate(929,847)"/>
<path d="M0 0 C0.99 0.33 1.98 0.66 3 1 C2.06558465 2.27310312 1.12732889 3.543388 0.1875 4.8125 C-0.33457031 5.52019531 -0.85664063 6.22789062 -1.39453125 6.95703125 C-2.83128877 8.78531393 -4.31815763 10.39896688 -6 12 C-5.54300722 6.97307937 -3.00758252 3.85103739 0 0 Z " fill="#7226ED" transform="translate(512,680)"/>
<path d="M0 0 C4.06225548 0.57823096 6.84762346 1.89117737 10.3125 4.0625 C11.19550781 4.61035156 12.07851563 5.15820312 12.98828125 5.72265625 C13.65214844 6.14417969 14.31601562 6.56570313 15 7 C14.34 7.66 13.68 8.32 13 9 C12.01 8.34 11.02 7.68 10 7 C10 6.34 10 5.68 10 5 C8.3603125 4.5359375 8.3603125 4.5359375 6.6875 4.0625 C4.44592006 3.41662103 2.2130649 2.7376883 0 2 C0 1.34 0 0.68 0 0 Z " fill="#3561FA" transform="translate(1003,808)"/>
<path d="M0 0 C5.73842251 -0.20413361 10.60539047 -0.27141454 16 2 C15.67 2.66 15.34 3.32 15 4 C14.41992188 3.86722656 13.83984375 3.73445312 13.2421875 3.59765625 C8.84229018 2.60295999 4.46105842 1.68631668 0 1 C0 0.67 0 0.34 0 0 Z " fill="#3955FA" transform="translate(987,805)"/>
<path d="M0 0 C0.33 0.66 0.66 1.32 1 2 C1.66 2.33 2.32 2.66 3 3 C-0.1540179 5.71595986 -1.87384964 6.96846241 -6 8 C-4.02 5.36 -2.04 2.72 0 0 Z " fill="#262347" transform="translate(529,815)"/>
<path d="M0 0 C3.21043882 1.38188453 5.04936365 2.92421903 7.25 5.625 C8.03117188 6.57246094 8.03117188 6.57246094 8.828125 7.5390625 C9.40820312 8.26222656 9.40820312 8.26222656 10 9 C9.67 9.66 9.34 10.32 9 11 C7.99403703 10.0479279 6.99538437 9.08812654 6 8.125 C5.443125 7.59132813 4.88625 7.05765625 4.3125 6.5078125 C3 5 3 5 3 3 C2.01 2.67 1.02 2.34 0 2 C0 1.34 0 0.68 0 0 Z " fill="#0242DB" transform="translate(760,594)"/>
<path d="M0 0 C6.24675325 6.07792208 6.24675325 6.07792208 8 9 C7.67 9.99 7.34 10.98 7 12 C7 11.34 7 10.68 7 10 C6.01 9.67 5.02 9.34 4 9 C3.30062468 7.68352881 2.63270867 6.34977849 2 5 C1.34 4.67 0.68 4.34 0 4 C0 2.68 0 1.36 0 0 Z " fill="#2D7FFB" transform="translate(736,566)"/>
<path d="M0 0 C0.99 0.33 1.98 0.66 3 1 C0.14589666 2.50560497 -2.68124642 3.63216796 -5.75 4.625 C-6.54921875 4.88539063 -7.3484375 5.14578125 -8.171875 5.4140625 C-8.77515625 5.60742188 -9.3784375 5.80078125 -10 6 C-10.66 5.34 -11.32 4.68 -12 4 C-11.30132813 3.79503906 -10.60265625 3.59007812 -9.8828125 3.37890625 C-8.97273437 3.10949219 -8.06265625 2.84007812 -7.125 2.5625 C-6.22007812 2.29566406 -5.31515625 2.02882813 -4.3828125 1.75390625 C-2.01724619 1.07386174 -2.01724619 1.07386174 0 0 Z " fill="#5C57F8" transform="translate(701,394)"/>
<path d="M0 0 C0.33 1.98 0.66 3.96 1 6 C-1.31 5.34 -3.62 4.68 -6 4 C-6 3.01 -6 2.02 -6 1 C-3 0 -3 0 0 0 Z " fill="#8143F2" transform="translate(825,336)"/>
<path d="M0 0 C0.99 0.33 1.98 0.66 3 1 C3 3.64 3 6.28 3 9 C2.34 9 1.68 9 1 9 C-0.4783226 6.04335481 -0.06032783 3.25770263 0 0 Z " fill="#8332F4" transform="translate(945,854)"/>
<path d="M0 0 C0.75 1.6875 0.75 1.6875 1 4 C-1.13381449 7.2769294 -2.25018012 8.75006004 -6 10 C-4.6302836 6.00499382 -2.74277578 3.19990508 0 0 Z " fill="#8444F6" transform="translate(939,824)"/>
<path d="M0 0 C0 0.66 0 1.32 0 2 C-1.258125 1.87625 -2.51625 1.7525 -3.8125 1.625 C-4.87404297 1.52058594 -4.87404297 1.52058594 -5.95703125 1.4140625 C-8 1 -8 1 -11 -1 C-6.99799622 -2.60080151 -3.95443764 -1.29279692 0 0 Z " fill="#973BF4" transform="translate(972,911)"/>
<path d="M0 0 C0.66 0.33 1.32 0.66 2 1 C1.1875 3.4375 1.1875 3.4375 0 6 C-0.99 6.33 -1.98 6.66 -3 7 C-3 7.66 -3 8.32 -3 9 C-3.66 9 -4.32 9 -5 9 C-3.7508258 5.54074837 -2.32472205 2.85306797 0 0 Z " fill="#1F1B4A" transform="translate(342,823)"/>
<path d="M0 0 C3.85645121 -0.22036864 6.49223216 0.39644899 10 2 C10 2.99 10 3.98 10 5 C2.42857143 3.14285714 2.42857143 3.14285714 0 0 Z " fill="#307CFB" transform="translate(721,710)"/>
<path d="M0 0 C0 3.01490557 -0.51952735 4.86864114 -1.5 7.6875 C-1.91765625 8.89986328 -1.91765625 8.89986328 -2.34375 10.13671875 C-2.66859375 11.05904297 -2.66859375 11.05904297 -3 12 C-3.33 12 -3.66 12 -4 12 C-4.49230769 4.61538462 -4.49230769 4.61538462 -2 1.5 C-1.34 1.005 -0.68 0.51 0 0 Z " fill="#3083FA" transform="translate(746,433)"/>
<path d="M0 0 C2.375 -0.125 2.375 -0.125 5 0 C5.66 0.66 6.32 1.32 7 2 C6.625 4.125 6.625 4.125 6 6 C5.34 6 4.68 6 4 6 C4 5.01 4 4.02 4 3 C3.34 3 2.68 3 2 3 C2 2.34 2 1.68 2 1 C1.34 0.67 0.68 0.34 0 0 Z " fill="#208BF8" transform="translate(787,401)"/>
<path d="M0 0 C0.33 1.65 0.66 3.3 1 5 C-1.97 4.505 -1.97 4.505 -5 4 C-5 3.01 -5 2.02 -5 1 C-2 0 -2 0 0 0 Z " fill="#356DF9" transform="translate(797,375)"/>
<path d="M0 0 C3.36720387 1.39332574 4.9859524 2.9789286 7 6 C6.67 6.66 6.34 7.32 6 8 C1.3125 4.38671875 1.3125 4.38671875 0 3 C0 2.01 0 1.02 0 0 Z " fill="#4278FC" transform="translate(717,545)"/>
<path d="M0 0 C0.66 0 1.32 0 2 0 C1.34 2.31 0.68 4.62 0 7 C-0.99 6.67 -1.98 6.34 -3 6 C-2.67 4.68 -2.34 3.36 -2 2 C-1.34 2 -0.68 2 0 2 C0 1.34 0 0.68 0 0 Z " fill="#2888FD" transform="translate(811,388)"/>
<path d="M0 0 C2.31 0.33 4.62 0.66 7 1 C7 1.99 7 2.98 7 4 C5.02 4 3.04 4 1 4 C0.67 2.68 0.34 1.36 0 0 Z " fill="#187BFD" transform="translate(821,375)"/>
<path d="M0 0 C0.99 0.66 1.98 1.32 3 2 C2.25 4.375 2.25 4.375 1 7 C-0.98 7.99 -0.98 7.99 -3 9 C-2.01 6.03 -1.02 3.06 0 0 Z " fill="#35305E" transform="translate(703,826)"/>
<path d="M0 0 C0.66 0 1.32 0 2 0 C3.0064275 1.66279327 4.00585407 3.32983484 5 5 C5.99 5.66 6.98 6.32 8 7 C7.67 7.99 7.34 8.98 7 10 C5.82739389 8.71372289 4.6620717 7.42080217 3.5 6.125 C2.8503125 5.40570312 2.200625 4.68640625 1.53125 3.9453125 C0 2 0 2 0 0 Z " fill="#6149F6" transform="translate(562,542)"/>
<path d="M0 0 C0.66 0 1.32 0 2 0 C0.70700306 2.88437779 -0.65941363 4.87219421 -3 7 C-3.66 6.67 -4.32 6.34 -5 6 C-3.38405168 3.95880212 -1.7143618 1.95927063 0 0 Z " fill="#DEDBE5" transform="translate(542,832)"/>
<path d="M0 0 C3.63 0.66 7.26 1.32 11 2 C11 2.33 11 2.66 11 3 C7.04 3 3.08 3 -1 3 C-0.67 2.01 -0.34 1.02 0 0 Z " fill="#9D36F6" transform="translate(438,720)"/>
<path d="M0 0 C0.66 0.99 1.32 1.98 2 3 C1.125 6.1875 1.125 6.1875 0 9 C-0.66 9 -1.32 9 -2 9 C-2.33 9.99 -2.66 10.98 -3 12 C-2.25749403 7.91621717 -1.17076699 3.98060777 0 0 Z " fill="#D2E7FD" transform="translate(744,438)"/>
<path d="M0 0 C-3.3340947 2.19097652 -6.04179141 3.43454163 -10 4 C-6.87839899 0.56623888 -4.64008112 -1.54669371 0 0 Z " fill="#4252FB" transform="translate(713,391)"/>
<path d="M0 0 C0.33 0.66 0.66 1.32 1 2 C1.66 2.33 2.32 2.66 3 3 C1.35 4.65 -0.3 6.3 -2 8 C-2 4.79604584 -1.25664978 2.90600261 0 0 Z " fill="#5573FB" transform="translate(724,372)"/>
<path d="M0 0 C0.928125 0.0825 1.85625 0.165 2.8125 0.25 C2.8125 0.91 2.8125 1.57 2.8125 2.25 C-0.1575 2.91 -3.1275 3.57 -6.1875 4.25 C-4.36434338 1.00883268 -3.82500054 0.30000004 0 0 Z " fill="#427AFB" transform="translate(765.1875,318.75)"/>
<path d="M0 0 C0.66 0.99 1.32 1.98 2 3 C0.68 4.32 -0.64 5.64 -2 7 C-2.99 6.67 -3.98 6.34 -5 6 C-3.35 4.02 -1.7 2.04 0 0 Z " fill="#24204E" transform="translate(472,885)"/>
<path d="M0 0 C3.99996286 1.33332095 4.83782337 3.4957827 7 7 C6.01 7 5.02 7 4 7 C0 2.65714286 0 2.65714286 0 0 Z " fill="#19163D" transform="translate(485,816)"/>
<path d="M0 0 C1.65 1.65 3.3 3.3 5 5 C4.34 5.66 3.68 6.32 3 7 C1.35 5.02 -0.3 3.04 -2 1 C-1.34 0.67 -0.68 0.34 0 0 Z " fill="#262250" transform="translate(478,806)"/>
<path d="M0 0 C4.62 0 9.24 0 14 0 C14 0.33 14 0.66 14 1 C12.22932584 1.16834933 10.45845388 1.33461909 8.6875 1.5 C7.70136719 1.5928125 6.71523438 1.685625 5.69921875 1.78125 C3 2 3 2 0 2 C0 1.34 0 0.68 0 0 Z " fill="#1E194C" transform="translate(453,807)"/>
<path d="M0 0 C2.475 0.495 2.475 0.495 5 1 C5 1.99 5 2.98 5 4 C3.68 4.33 2.36 4.66 1 5 C0.67 3.35 0.34 1.7 0 0 Z " fill="#8135F9" transform="translate(851,336)"/>
<path d="M0 0 C0.33 0 0.66 0 1 0 C1.33 2.97 1.66 5.94 2 9 C0.68 7.68 -0.64 6.36 -2 5 C-1.34 3.35 -0.68 1.7 0 0 Z " fill="#EBEAEF" transform="translate(288,867)"/>
<path d="M0 0 C0.66 0.99 1.32 1.98 2 3 C1.125 5.6875 1.125 5.6875 0 8 C-0.99 8 -1.98 8 -3 8 C-1.125 2.25 -1.125 2.25 0 0 Z " fill="#201C48" transform="translate(574,831)"/>
<path d="M0 0 C3.3 0 6.6 0 10 0 C10 0.33 10 0.66 10 1 C8.906875 1.103125 7.81375 1.20625 6.6875 1.3125 C3.14440371 1.97307727 2.06756277 2.2027092 0 5 C0 3.35 0 1.7 0 0 Z " fill="#140F3C" transform="translate(179,767)"/>
</svg>
